<svg width="1190" height="1082" viewBox="0 0 1190 1082" fill="none" xmlns="http://www.w3.org/2000/svg">
<rect width="200" height="50" fill="#EC5F67"/>
<rect x="330" width="200" height="50" fill="#EC5F67"/>
<rect x="660" width="200" height="50" fill="#EC5F67" fill-opacity="0.5"/>
<rect x="990" width="200" height="50" fill="#EC5F67" fill-opacity="0.5"/>
<path d="M91.1088 36.256C88.1648 36.256 85.8501 35.4133 84.1648 33.728C82.4794 32.0427 81.6368 29.5787 81.6368 26.336V13.6H84.8368V26.208C84.8368 28.704 85.3808 30.528 86.4688 31.68C87.5781 32.832 89.1354 33.408 91.1408 33.408C93.1674 33.408 94.7248 32.832 95.8128 31.68C96.9221 30.528 97.4768 28.704 97.4768 26.208V13.6H100.581V26.336C100.581 29.5787 99.7381 32.0427 98.0528 33.728C96.3888 35.4133 94.0741 36.256 91.1088 36.256ZM111.557 36.192C110.149 36.192 108.805 36 107.525 35.616C106.267 35.232 105.275 34.7627 104.549 34.208L105.829 31.776C106.555 32.2667 107.451 32.6827 108.517 33.024C109.584 33.3653 110.672 33.536 111.781 33.536C113.211 33.536 114.235 33.3333 114.853 32.928C115.493 32.5227 115.813 31.9573 115.813 31.232C115.813 30.6987 115.621 30.2827 115.237 29.984C114.853 29.6853 114.341 29.4613 113.701 29.312C113.083 29.1627 112.389 29.0347 111.621 28.928C110.853 28.8 110.085 28.6507 109.317 28.48C108.549 28.288 107.845 28.032 107.205 27.712C106.565 27.3707 106.053 26.912 105.669 26.336C105.285 25.7387 105.093 24.9493 105.093 23.968C105.093 22.944 105.381 22.048 105.957 21.28C106.533 20.512 107.344 19.9253 108.389 19.52C109.456 19.0933 110.715 18.88 112.165 18.88C113.275 18.88 114.395 19.0187 115.525 19.296C116.677 19.552 117.616 19.9253 118.341 20.416L117.029 22.848C116.261 22.336 115.461 21.984 114.629 21.792C113.797 21.6 112.965 21.504 112.133 21.504C110.789 21.504 109.787 21.728 109.125 22.176C108.464 22.6027 108.133 23.1573 108.133 23.84C108.133 24.416 108.325 24.864 108.709 25.184C109.115 25.4827 109.627 25.7173 110.245 25.888C110.885 26.0587 111.589 26.208 112.357 26.336C113.125 26.4427 113.893 26.592 114.661 26.784C115.429 26.9547 116.123 27.2 116.741 27.52C117.381 27.84 117.893 28.288 118.277 28.864C118.683 29.44 118.885 30.208 118.885 31.168C118.885 32.192 118.587 33.0773 117.989 33.824C117.392 34.5707 116.549 35.1573 115.461 35.584C114.373 35.9893 113.072 36.192 111.557 36.192ZM130.277 36.192C128.463 36.192 126.863 35.8187 125.477 35.072C124.111 34.3253 123.045 33.3013 122.277 32C121.53 30.6987 121.157 29.2053 121.157 27.52C121.157 25.8347 121.519 24.3413 122.245 23.04C122.991 21.7387 124.005 20.7253 125.285 20C126.586 19.2533 128.047 18.88 129.669 18.88C131.311 18.88 132.762 19.2427 134.021 19.968C135.279 20.6933 136.261 21.7173 136.965 23.04C137.69 24.3413 138.053 25.8667 138.053 27.616C138.053 27.744 138.042 27.8933 138.021 28.064C138.021 28.2347 138.01 28.3947 137.989 28.544H123.557V26.336H136.389L135.141 27.104C135.162 26.016 134.938 25.0453 134.469 24.192C133.999 23.3387 133.349 22.6773 132.517 22.208C131.706 21.7173 130.757 21.472 129.669 21.472C128.602 21.472 127.653 21.7173 126.821 22.208C125.989 22.6773 125.338 23.3493 124.869 24.224C124.399 25.0773 124.165 26.0587 124.165 27.168V27.68C124.165 28.8107 124.421 29.824 124.933 30.72C125.466 31.5947 126.202 32.2773 127.141 32.768C128.079 33.2587 129.157 33.504 130.373 33.504C131.375 33.504 132.282 33.3333 133.093 32.992C133.925 32.6507 134.65 32.1387 135.269 31.456L136.965 33.44C136.197 34.336 135.237 35.0187 134.085 35.488C132.954 35.9573 131.685 36.192 130.277 36.192ZM142.318 36V19.04H145.262V23.648L144.974 22.496C145.444 21.3227 146.233 20.4267 147.342 19.808C148.452 19.1893 149.817 18.88 151.438 18.88V21.856C151.31 21.8347 151.182 21.824 151.054 21.824C150.948 21.824 150.841 21.824 150.734 21.824C149.092 21.824 147.79 22.3147 146.83 23.296C145.87 24.2773 145.39 25.696 145.39 27.552V36H142.318Z" fill="white"/>
<path fill-rule="evenodd" clip-rule="evenodd" d="M63.3333 17.5C63.3333 18.6493 62.8768 19.7515 62.0641 20.5641C61.2515 21.3768 60.1493 21.8333 59 21.8333C57.8507 21.8333 56.7485 21.3768 55.9359 20.5641C55.1232 19.7515 54.6667 18.6493 54.6667 17.5C54.6667 16.3507 55.1232 15.2485 55.9359 14.4359C56.7485 13.6232 57.8507 13.1667 59 13.1667C60.1493 13.1667 61.2515 13.6232 62.0641 14.4359C62.8768 15.2485 63.3333 16.3507 63.3333 17.5V17.5ZM59 24C60.7239 24 62.3772 23.3152 63.5962 22.0962C64.8152 20.8772 65.5 19.2239 65.5 17.5C65.5 15.7761 64.8152 14.1228 63.5962 12.9038C62.3772 11.6848 60.7239 11 59 11C57.2761 11 55.6228 11.6848 54.4038 12.9038C53.1848 14.1228 52.5 15.7761 52.5 17.5C52.5 19.2239 53.1848 20.8772 54.4038 22.0962C55.6228 23.3152 57.2761 24 59 24V24ZM72 34.8333C72 37 69.8333 37 69.8333 37H48.1667C48.1667 37 46 37 46 34.8333C46 32.6667 48.1667 26.1667 59 26.1667C69.8333 26.1667 72 32.6667 72 34.8333ZM69.8333 34.8247C69.8312 34.2917 69.4997 32.6883 68.0307 31.2193C66.618 29.8067 63.9595 28.3333 59 28.3333C54.0383 28.3333 51.382 29.8067 49.9693 31.2193C48.5003 32.6883 48.171 34.2917 48.1667 34.8247H69.8333Z" fill="white"/>
<path d="M723.39 36L733.534 13.6H736.702L746.878 36H743.518L734.462 15.392H735.742L726.686 36H723.39ZM727.71 30.4L728.574 27.84H741.182L742.11 30.4H727.71ZM756.595 36.192C755.144 36.192 753.864 35.9253 752.755 35.392C751.667 34.8587 750.814 34.048 750.195 32.96C749.598 31.8507 749.299 30.464 749.299 28.8V19.04H752.371V28.448C752.371 30.112 752.766 31.36 753.555 32.192C754.366 33.024 755.496 33.44 756.947 33.44C758.014 33.44 758.942 33.2267 759.731 32.8C760.52 32.352 761.128 31.712 761.555 30.88C761.982 30.0267 762.195 29.0027 762.195 27.808V19.04H765.267V36H762.355V31.424L762.835 32.64C762.28 33.7707 761.448 34.6453 760.339 35.264C759.23 35.8827 757.982 36.192 756.595 36.192ZM776.939 36.192C775.232 36.192 773.91 35.7333 772.971 34.816C772.032 33.8987 771.563 32.5867 771.563 30.88V15.328H774.635V30.752C774.635 31.6693 774.859 32.3733 775.307 32.864C775.776 33.3547 776.438 33.6 777.291 33.6C778.251 33.6 779.051 33.3333 779.691 32.8L780.651 35.008C780.182 35.4133 779.616 35.712 778.955 35.904C778.315 36.096 777.643 36.192 776.939 36.192ZM768.683 21.568V19.04H779.499V21.568H768.683ZM793.421 18.88C794.808 18.88 796.024 19.1467 797.069 19.68C798.136 20.2133 798.968 21.024 799.565 22.112C800.162 23.2 800.461 24.576 800.461 26.24V36H797.389V26.592C797.389 24.9493 796.984 23.712 796.173 22.88C795.384 22.048 794.264 21.632 792.813 21.632C791.725 21.632 790.776 21.8453 789.965 22.272C789.154 22.6987 788.525 23.328 788.077 24.16C787.65 24.992 787.437 26.0267 787.437 27.264V36H784.365V12.256H787.437V23.616L786.829 22.4C787.384 21.2907 788.237 20.4267 789.389 19.808C790.541 19.1893 791.885 18.88 793.421 18.88ZM813.922 36.256C812.173 36.256 810.605 35.808 809.218 34.912C807.853 34.016 806.765 32.7147 805.954 31.008C805.165 29.3013 804.77 27.232 804.77 24.8C804.77 22.368 805.165 20.2987 805.954 18.592C806.765 16.8853 807.853 15.584 809.218 14.688C810.605 13.792 812.173 13.344 813.922 13.344C815.65 13.344 817.208 13.792 818.594 14.688C819.981 15.584 821.069 16.8853 821.858 18.592C822.648 20.2987 823.042 22.368 823.042 24.8C823.042 27.232 822.648 29.3013 821.858 31.008C821.069 32.7147 819.981 34.016 818.594 34.912C817.208 35.808 815.65 36.256 813.922 36.256ZM813.922 33.408C815.096 33.408 816.12 33.088 816.994 32.448C817.89 31.808 818.584 30.848 819.074 29.568C819.586 28.288 819.842 26.6987 819.842 24.8C819.842 22.9013 819.586 21.312 819.074 20.032C818.584 18.752 817.89 17.792 816.994 17.152C816.12 16.512 815.096 16.192 813.922 16.192C812.749 16.192 811.714 16.512 810.818 17.152C809.922 17.792 809.218 18.752 808.706 20.032C808.216 21.312 807.97 22.9013 807.97 24.8C807.97 26.6987 808.216 28.288 808.706 29.568C809.218 30.848 809.922 31.808 810.818 32.448C811.714 33.088 812.749 33.408 813.922 33.408Z" fill="white"/>
<path d="M716.691 20.0344L714.076 12H705.627L708.239 20.0344H716.691ZM705.627 12H697.18L694.57 20.0344H703.017L705.627 12ZM694.57 20.0344C693.013 24.8251 694.718 30.0734 698.794 33.0344L701.404 25L694.57 20.0344ZM716.686 20.0344L709.847 25L712.458 33.0344C716.536 30.0759 718.245 24.8272 716.691 20.0344H716.686ZM698.794 33.0344L705.629 38L712.462 33.0344L705.627 28.0687L698.794 33.0344Z" fill="white"/>
<path d="M1079.41 36L1089.55 13.6H1092.72L1102.89 36H1099.53L1090.48 15.392H1091.76L1082.7 36H1079.41ZM1083.73 30.4L1084.59 27.84H1097.2L1098.13 30.4H1083.73ZM1106.24 36V13.6H1114.97C1116.93 13.6 1118.61 13.9093 1120 14.528C1121.38 15.1467 1122.45 16.0427 1123.2 17.216C1123.94 18.3893 1124.32 19.7867 1124.32 21.408C1124.32 23.0293 1123.94 24.4267 1123.2 25.6C1122.45 26.752 1121.38 27.648 1120 28.288C1118.61 28.9067 1116.93 29.216 1114.97 29.216H1108L1109.44 27.712V36H1106.24ZM1109.44 28.032L1108 26.432H1114.88C1116.92 26.432 1118.47 25.9947 1119.52 25.12C1120.58 24.2453 1121.12 23.008 1121.12 21.408C1121.12 19.808 1120.58 18.5707 1119.52 17.696C1118.47 16.8213 1116.92 16.384 1114.88 16.384H1108L1109.44 14.784V28.032ZM1129.02 36V13.6H1132.22V36H1129.02Z" fill="white"/>
<g clip-path="url(#clip0_2_15)">
<path fill-rule="evenodd" clip-rule="evenodd" d="M1066.75 14.25H1047.25C1046.82 14.25 1046.41 14.4212 1046.1 14.726C1045.8 15.0307 1045.62 15.444 1045.62 15.875V32.125C1045.62 32.556 1045.8 32.9693 1046.1 33.274C1046.41 33.5788 1046.82 33.75 1047.25 33.75H1066.75C1067.18 33.75 1067.59 33.5788 1067.9 33.274C1068.2 32.9693 1068.38 32.556 1068.38 32.125V15.875C1068.38 15.444 1068.2 15.0307 1067.9 14.726C1067.59 14.4212 1067.18 14.25 1066.75 14.25V14.25ZM1047.25 12.625C1046.39 12.625 1045.56 12.9674 1044.95 13.5769C1044.34 14.1864 1044 15.013 1044 15.875V32.125C1044 32.987 1044.34 33.8136 1044.95 34.4231C1045.56 35.0326 1046.39 35.375 1047.25 35.375H1066.75C1067.61 35.375 1068.44 35.0326 1069.05 34.4231C1069.66 33.8136 1070 32.987 1070 32.125V15.875C1070 15.013 1069.66 14.1864 1069.05 13.5769C1068.44 12.9674 1067.61 12.625 1066.75 12.625H1047.25Z" fill="white"/>
<path fill-rule="evenodd" clip-rule="evenodd" d="M1053.75 25.625C1053.75 25.4095 1053.84 25.2028 1053.99 25.0505C1054.14 24.8981 1054.35 24.8125 1054.56 24.8125H1059.44C1059.65 24.8125 1059.86 24.8981 1060.01 25.0505C1060.16 25.2028 1060.25 25.4095 1060.25 25.625C1060.25 25.8405 1060.16 26.0471 1060.01 26.1995C1059.86 26.3519 1059.65 26.4375 1059.44 26.4375H1054.56C1054.35 26.4375 1054.14 26.3519 1053.99 26.1995C1053.84 26.0471 1053.75 25.8405 1053.75 25.625ZM1049.11 17.7372C1049.19 17.6616 1049.28 17.6015 1049.38 17.5606C1049.47 17.5196 1049.58 17.4985 1049.69 17.4985C1049.79 17.4985 1049.9 17.5196 1050 17.5606C1050.1 17.6015 1050.19 17.6616 1050.26 17.7372L1053.51 20.9872C1053.59 21.0627 1053.65 21.1524 1053.69 21.2511C1053.73 21.3498 1053.75 21.4556 1053.75 21.5625C1053.75 21.6694 1053.73 21.7752 1053.69 21.8739C1053.65 21.9726 1053.59 22.0623 1053.51 22.1377L1050.26 25.3877C1050.11 25.5403 1049.9 25.626 1049.69 25.626C1049.47 25.626 1049.26 25.5403 1049.11 25.3877C1048.96 25.2352 1048.87 25.0282 1048.87 24.8125C1048.87 24.5967 1048.96 24.3898 1049.11 24.2372L1051.79 21.5625L1049.11 18.8877C1049.04 18.8123 1048.98 18.7226 1048.94 18.6239C1048.89 18.5252 1048.87 18.4194 1048.87 18.3125C1048.87 18.2056 1048.89 18.0998 1048.94 18.0011C1048.98 17.9024 1049.04 17.8127 1049.11 17.7372V17.7372Z" fill="white"/>
</g>
<path d="M412.437 36L422.581 13.6H425.749L435.925 36H432.565L423.509 15.392H424.789L415.733 36H412.437ZM416.757 30.4L417.621 27.84H430.229L431.157 30.4H416.757ZM447.81 36.192C446.402 36.192 445.112 35.872 443.938 35.232C442.786 34.5707 441.858 33.6 441.154 32.32C440.472 31.04 440.13 29.44 440.13 27.52C440.13 25.6 440.461 24 441.122 22.72C441.805 21.44 442.722 20.48 443.874 19.84C445.048 19.2 446.36 18.88 447.81 18.88C449.474 18.88 450.946 19.2427 452.226 19.968C453.506 20.6933 454.52 21.7067 455.266 23.008C456.013 24.288 456.386 25.792 456.386 27.52C456.386 29.248 456.013 30.7627 455.266 32.064C454.52 33.3653 453.506 34.3787 452.226 35.104C450.946 35.8293 449.474 36.192 447.81 36.192ZM438.818 42.208V19.04H441.762V23.616L441.57 27.552L441.89 31.488V42.208H438.818ZM447.554 33.504C448.642 33.504 449.613 33.2587 450.466 32.768C451.341 32.2773 452.024 31.584 452.514 30.688C453.026 29.7707 453.282 28.7147 453.282 27.52C453.282 26.304 453.026 25.2587 452.514 24.384C452.024 23.488 451.341 22.7947 450.466 22.304C449.613 21.8133 448.642 21.568 447.554 21.568C446.488 21.568 445.517 21.8133 444.642 22.304C443.789 22.7947 443.106 23.488 442.594 24.384C442.104 25.2587 441.858 26.304 441.858 27.52C441.858 28.7147 442.104 29.7707 442.594 30.688C443.106 31.584 443.789 32.2773 444.642 32.768C445.517 33.2587 446.488 33.504 447.554 33.504ZM469.623 36.192C468.215 36.192 466.924 35.872 465.751 35.232C464.599 34.5707 463.671 33.6 462.967 32.32C462.284 31.04 461.943 29.44 461.943 27.52C461.943 25.6 462.273 24 462.935 22.72C463.617 21.44 464.535 20.48 465.687 19.84C466.86 19.2 468.172 18.88 469.623 18.88C471.287 18.88 472.759 19.2427 474.039 19.968C475.319 20.6933 476.332 21.7067 477.079 23.008C477.825 24.288 478.199 25.792 478.199 27.52C478.199 29.248 477.825 30.7627 477.079 32.064C476.332 33.3653 475.319 34.3787 474.039 35.104C472.759 35.8293 471.287 36.192 469.623 36.192ZM460.631 42.208V19.04H463.575V23.616L463.383 27.552L463.703 31.488V42.208H460.631ZM469.367 33.504C470.455 33.504 471.425 33.2587 472.279 32.768C473.153 32.2773 473.836 31.584 474.327 30.688C474.839 29.7707 475.095 28.7147 475.095 27.52C475.095 26.304 474.839 25.2587 474.327 24.384C473.836 23.488 473.153 22.7947 472.279 22.304C471.425 21.8133 470.455 21.568 469.367 21.568C468.3 21.568 467.329 21.8133 466.455 22.304C465.601 22.7947 464.919 23.488 464.407 24.384C463.916 25.2587 463.671 26.304 463.671 27.52C463.671 28.7147 463.916 29.7707 464.407 30.688C464.919 31.584 465.601 32.2773 466.455 32.768C467.329 33.2587 468.3 33.504 469.367 33.504Z" fill="white"/>
<g clip-path="url(#clip1_2_15)">
<path fill-rule="evenodd" clip-rule="evenodd" d="M401.75 14.25H382.25C381.819 14.25 381.406 14.4212 381.101 14.726C380.796 15.0307 380.625 15.444 380.625 15.875V32.125C380.625 32.556 380.796 32.9693 381.101 33.274C381.406 33.5788 381.819 33.75 382.25 33.75H401.75C402.181 33.75 402.594 33.5788 402.899 33.274C403.204 32.9693 403.375 32.556 403.375 32.125V15.875C403.375 15.444 403.204 15.0307 402.899 14.726C402.594 14.4212 402.181 14.25 401.75 14.25V14.25ZM382.25 12.625C381.388 12.625 380.561 12.9674 379.952 13.5769C379.342 14.1864 379 15.013 379 15.875V32.125C379 32.987 379.342 33.8136 379.952 34.4231C380.561 35.0326 381.388 35.375 382.25 35.375H401.75C402.612 35.375 403.439 35.0326 404.048 34.4231C404.658 33.8136 405 32.987 405 32.125V15.875C405 15.013 404.658 14.1864 404.048 13.5769C403.439 12.9674 402.612 12.625 401.75 12.625H382.25Z" fill="white"/>
<path fill-rule="evenodd" clip-rule="evenodd" d="M403.375 20.75H380.625V19.125H403.375V20.75Z" fill="white"/>
<path d="M383.875 16.6875C383.875 16.903 383.789 17.1097 383.637 17.262C383.485 17.4144 383.278 17.5 383.062 17.5C382.847 17.5 382.64 17.4144 382.488 17.262C382.336 17.1097 382.25 16.903 382.25 16.6875C382.25 16.472 382.336 16.2653 382.488 16.113C382.64 15.9606 382.847 15.875 383.062 15.875C383.278 15.875 383.485 15.9606 383.637 16.113C383.789 16.2653 383.875 16.472 383.875 16.6875V16.6875ZM386.312 16.6875C386.312 16.903 386.227 17.1097 386.075 17.262C385.922 17.4144 385.715 17.5 385.5 17.5C385.285 17.5 385.078 17.4144 384.925 17.262C384.773 17.1097 384.688 16.903 384.688 16.6875C384.688 16.472 384.773 16.2653 384.925 16.113C385.078 15.9606 385.285 15.875 385.5 15.875C385.715 15.875 385.922 15.9606 386.075 16.113C386.227 16.2653 386.312 16.472 386.312 16.6875ZM388.75 16.6875C388.75 16.903 388.664 17.1097 388.512 17.262C388.36 17.4144 388.153 17.5 387.938 17.5C387.722 17.5 387.515 17.4144 387.363 17.262C387.211 17.1097 387.125 16.903 387.125 16.6875C387.125 16.472 387.211 16.2653 387.363 16.113C387.515 15.9606 387.722 15.875 387.938 15.875C388.153 15.875 388.36 15.9606 388.512 16.113C388.664 16.2653 388.75 16.472 388.75 16.6875Z" fill="white"/>
</g>
<line x1="102" y1="50" x2="102" y2="1082" stroke="#EC5F67" stroke-opacity="0.4" stroke-width="4"/>
<line x1="432" y1="50" x2="432" y2="1082" stroke="#EC5F67" stroke-opacity="0.4" stroke-width="4"/>
<line x1="762" y1="50" x2="762" y2="1082" stroke="#EC5F67" stroke-opacity="0.4" stroke-width="4"/>
<line x1="1092" y1="50" x2="1092" y2="1082" stroke="#EC5F67" stroke-opacity="0.4" stroke-width="4"/>
<rect y="136" width="530" height="50" fill="#EC5F67"/>
<path d="M35.808 173V153.384H28.128V150.6H46.656V153.384H38.976V173H35.808ZM58.7493 155.88C60.1359 155.88 61.3519 156.147 62.3973 156.68C63.4639 157.213 64.2959 158.024 64.8933 159.112C65.4906 160.2 65.7893 161.576 65.7893 163.24V173H62.7173V163.592C62.7173 161.949 62.3119 160.712 61.5013 159.88C60.7119 159.048 59.5919 158.632 58.1413 158.632C57.0533 158.632 56.1039 158.845 55.2933 159.272C54.4826 159.699 53.8533 160.328 53.4053 161.16C52.9786 161.992 52.7653 163.027 52.7653 164.264V173H49.6933V149.256H52.7653V160.616L52.1573 159.4C52.7119 158.291 53.5653 157.427 54.7173 156.808C55.8693 156.189 57.2133 155.88 58.7493 155.88ZM79.0265 173.192C77.2132 173.192 75.6132 172.819 74.2265 172.072C72.8612 171.325 71.7945 170.301 71.0265 169C70.2798 167.699 69.9065 166.205 69.9065 164.52C69.9065 162.835 70.2692 161.341 70.9945 160.04C71.7412 158.739 72.7545 157.725 74.0345 157C75.3358 156.253 76.7972 155.88 78.4185 155.88C80.0612 155.88 81.5118 156.243 82.7705 156.968C84.0292 157.693 85.0105 158.717 85.7145 160.04C86.4398 161.341 86.8025 162.867 86.8025 164.616C86.8025 164.744 86.7918 164.893 86.7705 165.064C86.7705 165.235 86.7598 165.395 86.7385 165.544H72.3065V163.336H85.1385L83.8905 164.104C83.9118 163.016 83.6878 162.045 83.2185 161.192C82.7492 160.339 82.0985 159.677 81.2665 159.208C80.4558 158.717 79.5065 158.472 78.4185 158.472C77.3518 158.472 76.4025 158.717 75.5705 159.208C74.7385 159.677 74.0878 160.349 73.6185 161.224C73.1492 162.077 72.9145 163.059 72.9145 164.168V164.68C72.9145 165.811 73.1705 166.824 73.6825 167.72C74.2158 168.595 74.9518 169.277 75.8905 169.768C76.8292 170.259 77.9065 170.504 79.1225 170.504C80.1252 170.504 81.0318 170.333 81.8425 169.992C82.6745 169.651 83.3998 169.139 84.0185 168.456L85.7145 170.44C84.9465 171.336 83.9865 172.019 82.8345 172.488C81.7038 172.957 80.4345 173.192 79.0265 173.192ZM106.798 173.192C105.347 173.192 104.067 172.925 102.958 172.392C101.87 171.859 101.017 171.048 100.398 169.96C99.8007 168.851 99.502 167.464 99.502 165.8V156.04H102.574V165.448C102.574 167.112 102.969 168.36 103.758 169.192C104.569 170.024 105.699 170.44 107.15 170.44C108.217 170.44 109.145 170.227 109.934 169.8C110.723 169.352 111.331 168.712 111.758 167.88C112.185 167.027 112.398 166.003 112.398 164.808V156.04H115.47V173H112.558V168.424L113.038 169.64C112.483 170.771 111.651 171.645 110.542 172.264C109.433 172.883 108.185 173.192 106.798 173.192ZM126.182 173.192C124.774 173.192 123.43 173 122.15 172.616C120.892 172.232 119.9 171.763 119.174 171.208L120.454 168.776C121.18 169.267 122.076 169.683 123.142 170.024C124.209 170.365 125.297 170.536 126.406 170.536C127.836 170.536 128.86 170.333 129.478 169.928C130.118 169.523 130.438 168.957 130.438 168.232C130.438 167.699 130.246 167.283 129.862 166.984C129.478 166.685 128.966 166.461 128.326 166.312C127.708 166.163 127.014 166.035 126.246 165.928C125.478 165.8 124.71 165.651 123.942 165.48C123.174 165.288 122.47 165.032 121.83 164.712C121.19 164.371 120.678 163.912 120.294 163.336C119.91 162.739 119.718 161.949 119.718 160.968C119.718 159.944 120.006 159.048 120.582 158.28C121.158 157.512 121.969 156.925 123.014 156.52C124.081 156.093 125.34 155.88 126.79 155.88C127.9 155.88 129.02 156.019 130.15 156.296C131.302 156.552 132.241 156.925 132.966 157.416L131.654 159.848C130.886 159.336 130.086 158.984 129.254 158.792C128.422 158.6 127.59 158.504 126.758 158.504C125.414 158.504 124.412 158.728 123.75 159.176C123.089 159.603 122.758 160.157 122.758 160.84C122.758 161.416 122.95 161.864 123.334 162.184C123.74 162.483 124.252 162.717 124.87 162.888C125.51 163.059 126.214 163.208 126.982 163.336C127.75 163.443 128.518 163.592 129.286 163.784C130.054 163.955 130.748 164.2 131.366 164.52C132.006 164.84 132.518 165.288 132.902 165.864C133.308 166.44 133.51 167.208 133.51 168.168C133.51 169.192 133.212 170.077 132.614 170.824C132.017 171.571 131.174 172.157 130.086 172.584C128.998 172.989 127.697 173.192 126.182 173.192ZM144.902 173.192C143.088 173.192 141.488 172.819 140.102 172.072C138.736 171.325 137.67 170.301 136.902 169C136.155 167.699 135.782 166.205 135.782 164.52C135.782 162.835 136.144 161.341 136.87 160.04C137.616 158.739 138.63 157.725 139.91 157C141.211 156.253 142.672 155.88 144.294 155.88C145.936 155.88 147.387 156.243 148.646 156.968C149.904 157.693 150.886 158.717 151.59 160.04C152.315 161.341 152.678 162.867 152.678 164.616C152.678 164.744 152.667 164.893 152.646 165.064C152.646 165.235 152.635 165.395 152.614 165.544H138.182V163.336H151.014L149.766 164.104C149.787 163.016 149.563 162.045 149.094 161.192C148.624 160.339 147.974 159.677 147.142 159.208C146.331 158.717 145.382 158.472 144.294 158.472C143.227 158.472 142.278 158.717 141.446 159.208C140.614 159.677 139.963 160.349 139.494 161.224C139.024 162.077 138.79 163.059 138.79 164.168V164.68C138.79 165.811 139.046 166.824 139.558 167.72C140.091 168.595 140.827 169.277 141.766 169.768C142.704 170.259 143.782 170.504 144.998 170.504C146 170.504 146.907 170.333 147.718 169.992C148.55 169.651 149.275 169.139 149.894 168.456L151.59 170.44C150.822 171.336 149.862 172.019 148.71 172.488C147.579 172.957 146.31 173.192 144.902 173.192ZM156.943 173V156.04H159.887V160.648L159.599 159.496C160.069 158.323 160.858 157.427 161.967 156.808C163.077 156.189 164.442 155.88 166.063 155.88V158.856C165.935 158.835 165.807 158.824 165.679 158.824C165.573 158.824 165.466 158.824 165.359 158.824C163.717 158.824 162.415 159.315 161.455 160.296C160.495 161.277 160.015 162.696 160.015 164.552V173H156.943ZM186.054 173.192C184.326 173.192 182.779 172.819 181.414 172.072C180.07 171.325 179.014 170.301 178.246 169C177.478 167.699 177.094 166.205 177.094 164.52C177.094 162.835 177.478 161.341 178.246 160.04C179.014 158.739 180.07 157.725 181.414 157C182.779 156.253 184.326 155.88 186.054 155.88C187.59 155.88 188.955 156.189 190.15 156.808C191.366 157.405 192.305 158.301 192.966 159.496L190.63 161C190.075 160.168 189.393 159.56 188.582 159.176C187.793 158.771 186.939 158.568 186.022 158.568C184.913 158.568 183.921 158.813 183.046 159.304C182.171 159.795 181.478 160.488 180.966 161.384C180.454 162.259 180.198 163.304 180.198 164.52C180.198 165.736 180.454 166.792 180.966 167.688C181.478 168.584 182.171 169.277 183.046 169.768C183.921 170.259 184.913 170.504 186.022 170.504C186.939 170.504 187.793 170.312 188.582 169.928C189.393 169.523 190.075 168.904 190.63 168.072L192.966 169.544C192.305 170.717 191.366 171.624 190.15 172.264C188.955 172.883 187.59 173.192 186.054 173.192ZM196.725 173V149.256H199.797V173H196.725ZM205.662 173V156.04H208.734V173H205.662ZM207.198 152.776C206.601 152.776 206.099 152.584 205.694 152.2C205.31 151.816 205.118 151.347 205.118 150.792C205.118 150.216 205.31 149.736 205.694 149.352C206.099 148.968 206.601 148.776 207.198 148.776C207.795 148.776 208.286 148.968 208.67 149.352C209.075 149.715 209.278 150.173 209.278 150.728C209.278 151.304 209.086 151.795 208.702 152.2C208.318 152.584 207.817 152.776 207.198 152.776ZM221.992 173.192C220.264 173.192 218.717 172.819 217.352 172.072C216.008 171.325 214.952 170.301 214.184 169C213.416 167.699 213.032 166.205 213.032 164.52C213.032 162.835 213.416 161.341 214.184 160.04C214.952 158.739 216.008 157.725 217.352 157C218.717 156.253 220.264 155.88 221.992 155.88C223.528 155.88 224.893 156.189 226.088 156.808C227.304 157.405 228.242 158.301 228.904 159.496L226.568 161C226.013 160.168 225.33 159.56 224.52 159.176C223.73 158.771 222.877 158.568 221.96 158.568C220.85 158.568 219.858 158.813 218.984 159.304C218.109 159.795 217.416 160.488 216.904 161.384C216.392 162.259 216.136 163.304 216.136 164.52C216.136 165.736 216.392 166.792 216.904 167.688C217.416 168.584 218.109 169.277 218.984 169.768C219.858 170.259 220.85 170.504 221.96 170.504C222.877 170.504 223.73 170.312 224.52 169.928C225.33 169.523 226.013 168.904 226.568 168.072L228.904 169.544C228.242 170.717 227.304 171.624 226.088 172.264C224.893 172.883 223.528 173.192 221.992 173.192ZM235.158 168.904L235.222 164.968L244.982 156.04H248.694L241.206 163.4L239.542 164.808L235.158 168.904ZM232.662 173V149.256H235.734V173H232.662ZM245.622 173L238.966 164.744L240.95 162.28L249.398 173H245.622ZM256.714 173.192C255.306 173.192 253.962 173 252.682 172.616C251.423 172.232 250.431 171.763 249.706 171.208L250.986 168.776C251.711 169.267 252.607 169.683 253.674 170.024C254.74 170.365 255.828 170.536 256.938 170.536C258.367 170.536 259.391 170.333 260.01 169.928C260.65 169.523 260.97 168.957 260.97 168.232C260.97 167.699 260.778 167.283 260.394 166.984C260.01 166.685 259.498 166.461 258.858 166.312C258.239 166.163 257.546 166.035 256.778 165.928C256.01 165.8 255.242 165.651 254.474 165.48C253.706 165.288 253.002 165.032 252.362 164.712C251.722 164.371 251.21 163.912 250.826 163.336C250.442 162.739 250.25 161.949 250.25 160.968C250.25 159.944 250.538 159.048 251.114 158.28C251.69 157.512 252.5 156.925 253.546 156.52C254.612 156.093 255.871 155.88 257.322 155.88C258.431 155.88 259.551 156.019 260.682 156.296C261.834 156.552 262.772 156.925 263.498 157.416L262.186 159.848C261.418 159.336 260.618 158.984 259.786 158.792C258.954 158.6 258.122 158.504 257.29 158.504C255.946 158.504 254.943 158.728 254.282 159.176C253.62 159.603 253.29 160.157 253.29 160.84C253.29 161.416 253.482 161.864 253.866 162.184C254.271 162.483 254.783 162.717 255.402 162.888C256.042 163.059 256.746 163.208 257.514 163.336C258.282 163.443 259.05 163.592 259.818 163.784C260.586 163.955 261.279 164.2 261.898 164.52C262.538 164.84 263.05 165.288 263.434 165.864C263.839 166.44 264.042 167.208 264.042 168.168C264.042 169.192 263.743 170.077 263.146 170.824C262.548 171.571 261.706 172.157 260.618 172.584C259.53 172.989 258.228 173.192 256.714 173.192ZM283.739 173.192C282.032 173.192 280.517 172.819 279.195 172.072C277.872 171.325 276.827 170.301 276.059 169C275.291 167.677 274.907 166.184 274.907 164.52C274.907 162.835 275.291 161.341 276.059 160.04C276.827 158.739 277.872 157.725 279.195 157C280.517 156.253 282.032 155.88 283.739 155.88C285.424 155.88 286.928 156.253 288.251 157C289.595 157.725 290.64 158.739 291.387 160.04C292.155 161.32 292.539 162.813 292.539 164.52C292.539 166.205 292.155 167.699 291.387 169C290.64 170.301 289.595 171.325 288.251 172.072C286.928 172.819 285.424 173.192 283.739 173.192ZM283.739 170.504C284.827 170.504 285.797 170.259 286.651 169.768C287.525 169.277 288.208 168.584 288.699 167.688C289.189 166.771 289.435 165.715 289.435 164.52C289.435 163.304 289.189 162.259 288.699 161.384C288.208 160.488 287.525 159.795 286.651 159.304C285.797 158.813 284.827 158.568 283.739 158.568C282.651 158.568 281.68 158.813 280.827 159.304C279.973 159.795 279.291 160.488 278.779 161.384C278.267 162.259 278.011 163.304 278.011 164.52C278.011 165.715 278.267 166.771 278.779 167.688C279.291 168.584 279.973 169.277 280.827 169.768C281.68 170.259 282.651 170.504 283.739 170.504ZM305.843 155.88C307.23 155.88 308.446 156.147 309.491 156.68C310.558 157.213 311.39 158.024 311.987 159.112C312.584 160.2 312.883 161.576 312.883 163.24V173H309.811V163.592C309.811 161.949 309.406 160.712 308.595 159.88C307.806 159.048 306.686 158.632 305.235 158.632C304.147 158.632 303.198 158.845 302.387 159.272C301.576 159.699 300.947 160.328 300.499 161.16C300.072 161.992 299.859 163.027 299.859 164.264V173H296.787V156.04H299.731V160.616L299.251 159.4C299.806 158.291 300.659 157.427 301.811 156.808C302.963 156.189 304.307 155.88 305.843 155.88ZM337.69 173V169.416L337.53 168.744V162.632C337.53 161.331 337.146 160.328 336.378 159.624C335.631 158.899 334.501 158.536 332.986 158.536C331.983 158.536 331.002 158.707 330.042 159.048C329.082 159.368 328.271 159.805 327.61 160.36L326.33 158.056C327.205 157.352 328.25 156.819 329.466 156.456C330.703 156.072 331.994 155.88 333.338 155.88C335.663 155.88 337.455 156.445 338.714 157.576C339.973 158.707 340.602 160.435 340.602 162.76V173H337.69ZM332.122 173.192C330.863 173.192 329.754 172.979 328.794 172.552C327.855 172.125 327.13 171.539 326.618 170.792C326.106 170.024 325.85 169.16 325.85 168.2C325.85 167.283 326.063 166.451 326.49 165.704C326.938 164.957 327.653 164.36 328.634 163.912C329.637 163.464 330.981 163.24 332.666 163.24H338.042V165.448H332.794C331.258 165.448 330.223 165.704 329.69 166.216C329.157 166.728 328.89 167.347 328.89 168.072C328.89 168.904 329.221 169.576 329.882 170.088C330.543 170.579 331.461 170.824 332.634 170.824C333.786 170.824 334.789 170.568 335.642 170.056C336.517 169.544 337.146 168.797 337.53 167.816L338.138 169.928C337.733 170.931 337.018 171.731 335.994 172.328C334.97 172.904 333.679 173.192 332.122 173.192ZM354.881 173V149.256H357.953V173H354.881ZM371.082 173.192C369.376 173.192 367.861 172.819 366.538 172.072C365.216 171.325 364.17 170.301 363.402 169C362.634 167.677 362.25 166.184 362.25 164.52C362.25 162.835 362.634 161.341 363.402 160.04C364.17 158.739 365.216 157.725 366.538 157C367.861 156.253 369.376 155.88 371.082 155.88C372.768 155.88 374.272 156.253 375.594 157C376.938 157.725 377.984 158.739 378.73 160.04C379.498 161.32 379.882 162.813 379.882 164.52C379.882 166.205 379.498 167.699 378.73 169C377.984 170.301 376.938 171.325 375.594 172.072C374.272 172.819 372.768 173.192 371.082 173.192ZM371.082 170.504C372.17 170.504 373.141 170.259 373.994 169.768C374.869 169.277 375.552 168.584 376.042 167.688C376.533 166.771 376.778 165.715 376.778 164.52C376.778 163.304 376.533 162.259 376.042 161.384C375.552 160.488 374.869 159.795 373.994 159.304C373.141 158.813 372.17 158.568 371.082 158.568C369.994 158.568 369.024 158.813 368.17 159.304C367.317 159.795 366.634 160.488 366.122 161.384C365.61 162.259 365.354 163.304 365.354 164.52C365.354 165.715 365.61 166.771 366.122 167.688C366.634 168.584 367.317 169.277 368.17 169.768C369.024 170.259 369.994 170.504 371.082 170.504ZM391.555 179.4C389.997 179.4 388.483 179.176 387.011 178.728C385.56 178.301 384.376 177.683 383.459 176.872L384.931 174.504C385.72 175.187 386.691 175.72 387.843 176.104C388.995 176.509 390.2 176.712 391.459 176.712C393.464 176.712 394.936 176.243 395.875 175.304C396.813 174.365 397.283 172.936 397.283 171.016V167.432L397.603 164.072L397.443 160.68V156.04H400.355V170.696C400.355 173.683 399.608 175.88 398.115 177.288C396.621 178.696 394.435 179.4 391.555 179.4ZM391.171 172.296C389.528 172.296 388.056 171.955 386.755 171.272C385.475 170.568 384.451 169.597 383.683 168.36C382.936 167.123 382.563 165.693 382.563 164.072C382.563 162.429 382.936 161 383.683 159.784C384.451 158.547 385.475 157.587 386.755 156.904C388.056 156.221 389.528 155.88 391.171 155.88C392.621 155.88 393.944 156.179 395.139 156.776C396.333 157.352 397.283 158.248 397.987 159.464C398.712 160.68 399.075 162.216 399.075 164.072C399.075 165.907 398.712 167.432 397.987 168.648C397.283 169.864 396.333 170.781 395.139 171.4C393.944 171.997 392.621 172.296 391.171 172.296ZM391.523 169.608C392.653 169.608 393.656 169.373 394.531 168.904C395.405 168.435 396.088 167.784 396.579 166.952C397.091 166.12 397.347 165.16 397.347 164.072C397.347 162.984 397.091 162.024 396.579 161.192C396.088 160.36 395.405 159.72 394.531 159.272C393.656 158.803 392.653 158.568 391.523 158.568C390.392 158.568 389.379 158.803 388.483 159.272C387.608 159.72 386.915 160.36 386.403 161.192C385.912 162.024 385.667 162.984 385.667 164.072C385.667 165.16 385.912 166.12 386.403 166.952C386.915 167.784 387.608 168.435 388.483 168.904C389.379 169.373 390.392 169.608 391.523 169.608ZM406.225 173V156.04H409.297V173H406.225ZM407.761 152.776C407.163 152.776 406.662 152.584 406.257 152.2C405.873 151.816 405.681 151.347 405.681 150.792C405.681 150.216 405.873 149.736 406.257 149.352C406.662 148.968 407.163 148.776 407.761 148.776C408.358 148.776 408.849 148.968 409.233 149.352C409.638 149.715 409.841 150.173 409.841 150.728C409.841 151.304 409.649 151.795 409.265 152.2C408.881 152.584 408.379 152.776 407.761 152.776ZM424.218 155.88C425.605 155.88 426.821 156.147 427.866 156.68C428.933 157.213 429.765 158.024 430.362 159.112C430.959 160.2 431.258 161.576 431.258 163.24V173H428.186V163.592C428.186 161.949 427.781 160.712 426.97 159.88C426.181 159.048 425.061 158.632 423.61 158.632C422.522 158.632 421.573 158.845 420.762 159.272C419.951 159.699 419.322 160.328 418.874 161.16C418.447 161.992 418.234 163.027 418.234 164.264V173H415.162V156.04H418.106V160.616L417.626 159.4C418.181 158.291 419.034 157.427 420.186 156.808C421.338 156.189 422.682 155.88 424.218 155.88ZM445.537 173V149.256H448.609V173H445.537ZM454.475 173V156.04H457.547V173H454.475ZM456.011 152.776C455.413 152.776 454.912 152.584 454.507 152.2C454.123 151.816 453.931 151.347 453.931 150.792C453.931 150.216 454.123 149.736 454.507 149.352C454.912 148.968 455.413 148.776 456.011 148.776C456.608 148.776 457.099 148.968 457.483 149.352C457.888 149.715 458.091 150.173 458.091 150.728C458.091 151.304 457.899 151.795 457.515 152.2C457.131 152.584 456.629 152.776 456.011 152.776ZM472.468 155.88C473.855 155.88 475.071 156.147 476.116 156.68C477.183 157.213 478.015 158.024 478.612 159.112C479.209 160.2 479.508 161.576 479.508 163.24V173H476.436V163.592C476.436 161.949 476.031 160.712 475.22 159.88C474.431 159.048 473.311 158.632 471.86 158.632C470.772 158.632 469.823 158.845 469.012 159.272C468.201 159.699 467.572 160.328 467.124 161.16C466.697 161.992 466.484 163.027 466.484 164.264V173H463.412V156.04H466.356V160.616L465.876 159.4C466.431 158.291 467.284 157.427 468.436 156.808C469.588 156.189 470.932 155.88 472.468 155.88ZM487.689 168.904L487.753 164.968L497.513 156.04H501.225L493.737 163.4L492.073 164.808L487.689 168.904ZM485.193 173V149.256H488.265V173H485.193ZM498.153 173L491.497 164.744L493.481 162.28L501.929 173H498.153Z" fill="white"/>
<path d="M549.728 162.224L540.819 170.017C539.77 170.937 538.125 170.189 538.125 168.794V153.207C538.125 152.894 538.215 152.588 538.384 152.326C538.553 152.063 538.794 151.855 539.078 151.725C539.363 151.596 539.678 151.552 539.988 151.598C540.297 151.643 540.586 151.777 540.821 151.983L549.726 159.776C549.9 159.929 550.04 160.117 550.136 160.328C550.232 160.539 550.282 160.768 550.282 161C550.282 161.232 550.232 161.461 550.136 161.672C550.04 161.883 549.9 162.071 549.726 162.224H549.728Z" fill="#EC5F67"/>
<defs>
<clipPath id="clip0_2_15">
<rect width="26" height="26" fill="white" transform="translate(1044 11)"/>
</clipPath>
<clipPath id="clip1_2_15">
<rect width="26" height="26" fill="white" transform="translate(379 11)"/>
</clipPath>
</defs>
</svg>
