<svg width="1190" height="1082" viewBox="0 0 1190 1082" fill="none" xmlns="http://www.w3.org/2000/svg">
<rect width="200" height="50" fill="#EC5F67" fill-opacity="0.5"/>
<rect x="330" width="200" height="50" fill="#EC5F67"/>
<rect x="660" width="200" height="50" fill="#EC5F67" fill-opacity="0.5"/>
<rect x="990" width="200" height="50" fill="#EC5F67" fill-opacity="0.5"/>
<path d="M91.1088 36.256C88.1648 36.256 85.8501 35.4133 84.1648 33.728C82.4794 32.0427 81.6368 29.5787 81.6368 26.336V13.6H84.8368V26.208C84.8368 28.704 85.3808 30.528 86.4688 31.68C87.5781 32.832 89.1354 33.408 91.1408 33.408C93.1674 33.408 94.7248 32.832 95.8128 31.68C96.9221 30.528 97.4768 28.704 97.4768 26.208V13.6H100.581V26.336C100.581 29.5787 99.7381 32.0427 98.0528 33.728C96.3888 35.4133 94.0741 36.256 91.1088 36.256ZM111.557 36.192C110.149 36.192 108.805 36 107.525 35.616C106.267 35.232 105.275 34.7627 104.549 34.208L105.829 31.776C106.555 32.2667 107.451 32.6827 108.517 33.024C109.584 33.3653 110.672 33.536 111.781 33.536C113.211 33.536 114.235 33.3333 114.853 32.928C115.493 32.5227 115.813 31.9573 115.813 31.232C115.813 30.6987 115.621 30.2827 115.237 29.984C114.853 29.6853 114.341 29.4613 113.701 29.312C113.083 29.1627 112.389 29.0347 111.621 28.928C110.853 28.8 110.085 28.6507 109.317 28.48C108.549 28.288 107.845 28.032 107.205 27.712C106.565 27.3707 106.053 26.912 105.669 26.336C105.285 25.7387 105.093 24.9493 105.093 23.968C105.093 22.944 105.381 22.048 105.957 21.28C106.533 20.512 107.344 19.9253 108.389 19.52C109.456 19.0933 110.715 18.88 112.165 18.88C113.275 18.88 114.395 19.0187 115.525 19.296C116.677 19.552 117.616 19.9253 118.341 20.416L117.029 22.848C116.261 22.336 115.461 21.984 114.629 21.792C113.797 21.6 112.965 21.504 112.133 21.504C110.789 21.504 109.787 21.728 109.125 22.176C108.464 22.6027 108.133 23.1573 108.133 23.84C108.133 24.416 108.325 24.864 108.709 25.184C109.115 25.4827 109.627 25.7173 110.245 25.888C110.885 26.0587 111.589 26.208 112.357 26.336C113.125 26.4427 113.893 26.592 114.661 26.784C115.429 26.9547 116.123 27.2 116.741 27.52C117.381 27.84 117.893 28.288 118.277 28.864C118.683 29.44 118.885 30.208 118.885 31.168C118.885 32.192 118.587 33.0773 117.989 33.824C117.392 34.5707 116.549 35.1573 115.461 35.584C114.373 35.9893 113.072 36.192 111.557 36.192ZM130.277 36.192C128.463 36.192 126.863 35.8187 125.477 35.072C124.111 34.3253 123.045 33.3013 122.277 32C121.53 30.6987 121.157 29.2053 121.157 27.52C121.157 25.8347 121.519 24.3413 122.245 23.04C122.991 21.7387 124.005 20.7253 125.285 20C126.586 19.2533 128.047 18.88 129.669 18.88C131.311 18.88 132.762 19.2427 134.021 19.968C135.279 20.6933 136.261 21.7173 136.965 23.04C137.69 24.3413 138.053 25.8667 138.053 27.616C138.053 27.744 138.042 27.8933 138.021 28.064C138.021 28.2347 138.01 28.3947 137.989 28.544H123.557V26.336H136.389L135.141 27.104C135.162 26.016 134.938 25.0453 134.469 24.192C133.999 23.3387 133.349 22.6773 132.517 22.208C131.706 21.7173 130.757 21.472 129.669 21.472C128.602 21.472 127.653 21.7173 126.821 22.208C125.989 22.6773 125.338 23.3493 124.869 24.224C124.399 25.0773 124.165 26.0587 124.165 27.168V27.68C124.165 28.8107 124.421 29.824 124.933 30.72C125.466 31.5947 126.202 32.2773 127.141 32.768C128.079 33.2587 129.157 33.504 130.373 33.504C131.375 33.504 132.282 33.3333 133.093 32.992C133.925 32.6507 134.65 32.1387 135.269 31.456L136.965 33.44C136.197 34.336 135.237 35.0187 134.085 35.488C132.954 35.9573 131.685 36.192 130.277 36.192ZM142.318 36V19.04H145.262V23.648L144.974 22.496C145.444 21.3227 146.233 20.4267 147.342 19.808C148.452 19.1893 149.817 18.88 151.438 18.88V21.856C151.31 21.8347 151.182 21.824 151.054 21.824C150.948 21.824 150.841 21.824 150.734 21.824C149.092 21.824 147.79 22.3147 146.83 23.296C145.87 24.2773 145.39 25.696 145.39 27.552V36H142.318Z" fill="white"/>
<path fill-rule="evenodd" clip-rule="evenodd" d="M63.3333 17.5C63.3333 18.6493 62.8768 19.7515 62.0641 20.5641C61.2515 21.3768 60.1493 21.8333 59 21.8333C57.8507 21.8333 56.7485 21.3768 55.9359 20.5641C55.1232 19.7515 54.6667 18.6493 54.6667 17.5C54.6667 16.3507 55.1232 15.2485 55.9359 14.4359C56.7485 13.6232 57.8507 13.1667 59 13.1667C60.1493 13.1667 61.2515 13.6232 62.0641 14.4359C62.8768 15.2485 63.3333 16.3507 63.3333 17.5V17.5ZM59 24C60.7239 24 62.3772 23.3152 63.5962 22.0962C64.8152 20.8772 65.5 19.2239 65.5 17.5C65.5 15.7761 64.8152 14.1228 63.5962 12.9038C62.3772 11.6848 60.7239 11 59 11C57.2761 11 55.6228 11.6848 54.4038 12.9038C53.1848 14.1228 52.5 15.7761 52.5 17.5C52.5 19.2239 53.1848 20.8772 54.4038 22.0962C55.6228 23.3152 57.2761 24 59 24V24ZM72 34.8333C72 37 69.8333 37 69.8333 37H48.1667C48.1667 37 46 37 46 34.8333C46 32.6667 48.1667 26.1667 59 26.1667C69.8333 26.1667 72 32.6667 72 34.8333ZM69.8333 34.8247C69.8312 34.2917 69.4997 32.6883 68.0307 31.2193C66.618 29.8067 63.9595 28.3333 59 28.3333C54.0383 28.3333 51.382 29.8067 49.9693 31.2193C48.5003 32.6883 48.171 34.2917 48.1667 34.8247H69.8333Z" fill="white"/>
<path d="M723.39 36L733.534 13.6H736.702L746.878 36H743.518L734.462 15.392H735.742L726.686 36H723.39ZM727.71 30.4L728.574 27.84H741.182L742.11 30.4H727.71ZM756.595 36.192C755.144 36.192 753.864 35.9253 752.755 35.392C751.667 34.8587 750.814 34.048 750.195 32.96C749.598 31.8507 749.299 30.464 749.299 28.8V19.04H752.371V28.448C752.371 30.112 752.766 31.36 753.555 32.192C754.366 33.024 755.496 33.44 756.947 33.44C758.014 33.44 758.942 33.2267 759.731 32.8C760.52 32.352 761.128 31.712 761.555 30.88C761.982 30.0267 762.195 29.0027 762.195 27.808V19.04H765.267V36H762.355V31.424L762.835 32.64C762.28 33.7707 761.448 34.6453 760.339 35.264C759.23 35.8827 757.982 36.192 756.595 36.192ZM776.939 36.192C775.232 36.192 773.91 35.7333 772.971 34.816C772.032 33.8987 771.563 32.5867 771.563 30.88V15.328H774.635V30.752C774.635 31.6693 774.859 32.3733 775.307 32.864C775.776 33.3547 776.438 33.6 777.291 33.6C778.251 33.6 779.051 33.3333 779.691 32.8L780.651 35.008C780.182 35.4133 779.616 35.712 778.955 35.904C778.315 36.096 777.643 36.192 776.939 36.192ZM768.683 21.568V19.04H779.499V21.568H768.683ZM793.421 18.88C794.808 18.88 796.024 19.1467 797.069 19.68C798.136 20.2133 798.968 21.024 799.565 22.112C800.162 23.2 800.461 24.576 800.461 26.24V36H797.389V26.592C797.389 24.9493 796.984 23.712 796.173 22.88C795.384 22.048 794.264 21.632 792.813 21.632C791.725 21.632 790.776 21.8453 789.965 22.272C789.154 22.6987 788.525 23.328 788.077 24.16C787.65 24.992 787.437 26.0267 787.437 27.264V36H784.365V12.256H787.437V23.616L786.829 22.4C787.384 21.2907 788.237 20.4267 789.389 19.808C790.541 19.1893 791.885 18.88 793.421 18.88ZM813.922 36.256C812.173 36.256 810.605 35.808 809.218 34.912C807.853 34.016 806.765 32.7147 805.954 31.008C805.165 29.3013 804.77 27.232 804.77 24.8C804.77 22.368 805.165 20.2987 805.954 18.592C806.765 16.8853 807.853 15.584 809.218 14.688C810.605 13.792 812.173 13.344 813.922 13.344C815.65 13.344 817.208 13.792 818.594 14.688C819.981 15.584 821.069 16.8853 821.858 18.592C822.648 20.2987 823.042 22.368 823.042 24.8C823.042 27.232 822.648 29.3013 821.858 31.008C821.069 32.7147 819.981 34.016 818.594 34.912C817.208 35.808 815.65 36.256 813.922 36.256ZM813.922 33.408C815.096 33.408 816.12 33.088 816.994 32.448C817.89 31.808 818.584 30.848 819.074 29.568C819.586 28.288 819.842 26.6987 819.842 24.8C819.842 22.9013 819.586 21.312 819.074 20.032C818.584 18.752 817.89 17.792 816.994 17.152C816.12 16.512 815.096 16.192 813.922 16.192C812.749 16.192 811.714 16.512 810.818 17.152C809.922 17.792 809.218 18.752 808.706 20.032C808.216 21.312 807.97 22.9013 807.97 24.8C807.97 26.6987 808.216 28.288 808.706 29.568C809.218 30.848 809.922 31.808 810.818 32.448C811.714 33.088 812.749 33.408 813.922 33.408Z" fill="white"/>
<path d="M716.691 20.0344L714.076 12H705.627L708.239 20.0344H716.691ZM705.627 12H697.18L694.57 20.0344H703.017L705.627 12ZM694.57 20.0344C693.013 24.8251 694.718 30.0734 698.794 33.0344L701.404 25L694.57 20.0344ZM716.686 20.0344L709.847 25L712.458 33.0344C716.536 30.0759 718.245 24.8272 716.691 20.0344H716.686ZM698.794 33.0344L705.629 38L712.462 33.0344L705.627 28.0687L698.794 33.0344Z" fill="white"/>
<path d="M1079.41 36L1089.55 13.6H1092.72L1102.89 36H1099.53L1090.48 15.392H1091.76L1082.7 36H1079.41ZM1083.73 30.4L1084.59 27.84H1097.2L1098.13 30.4H1083.73ZM1106.24 36V13.6H1114.97C1116.93 13.6 1118.61 13.9093 1120 14.528C1121.38 15.1467 1122.45 16.0427 1123.2 17.216C1123.94 18.3893 1124.32 19.7867 1124.32 21.408C1124.32 23.0293 1123.94 24.4267 1123.2 25.6C1122.45 26.752 1121.38 27.648 1120 28.288C1118.61 28.9067 1116.93 29.216 1114.97 29.216H1108L1109.44 27.712V36H1106.24ZM1109.44 28.032L1108 26.432H1114.88C1116.92 26.432 1118.47 25.9947 1119.52 25.12C1120.58 24.2453 1121.12 23.008 1121.12 21.408C1121.12 19.808 1120.58 18.5707 1119.52 17.696C1118.47 16.8213 1116.92 16.384 1114.88 16.384H1108L1109.44 14.784V28.032ZM1129.02 36V13.6H1132.22V36H1129.02Z" fill="white"/>
<g clip-path="url(#clip0_2_16)">
<path fill-rule="evenodd" clip-rule="evenodd" d="M1066.75 14.25H1047.25C1046.82 14.25 1046.41 14.4212 1046.1 14.726C1045.8 15.0307 1045.62 15.444 1045.62 15.875V32.125C1045.62 32.556 1045.8 32.9693 1046.1 33.274C1046.41 33.5788 1046.82 33.75 1047.25 33.75H1066.75C1067.18 33.75 1067.59 33.5788 1067.9 33.274C1068.2 32.9693 1068.38 32.556 1068.38 32.125V15.875C1068.38 15.444 1068.2 15.0307 1067.9 14.726C1067.59 14.4212 1067.18 14.25 1066.75 14.25V14.25ZM1047.25 12.625C1046.39 12.625 1045.56 12.9674 1044.95 13.5769C1044.34 14.1864 1044 15.013 1044 15.875V32.125C1044 32.987 1044.34 33.8136 1044.95 34.4231C1045.56 35.0326 1046.39 35.375 1047.25 35.375H1066.75C1067.61 35.375 1068.44 35.0326 1069.05 34.4231C1069.66 33.8136 1070 32.987 1070 32.125V15.875C1070 15.013 1069.66 14.1864 1069.05 13.5769C1068.44 12.9674 1067.61 12.625 1066.75 12.625H1047.25Z" fill="white"/>
<path fill-rule="evenodd" clip-rule="evenodd" d="M1053.75 25.625C1053.75 25.4095 1053.84 25.2028 1053.99 25.0505C1054.14 24.8981 1054.35 24.8125 1054.56 24.8125H1059.44C1059.65 24.8125 1059.86 24.8981 1060.01 25.0505C1060.16 25.2028 1060.25 25.4095 1060.25 25.625C1060.25 25.8405 1060.16 26.0471 1060.01 26.1995C1059.86 26.3519 1059.65 26.4375 1059.44 26.4375H1054.56C1054.35 26.4375 1054.14 26.3519 1053.99 26.1995C1053.84 26.0471 1053.75 25.8405 1053.75 25.625ZM1049.11 17.7372C1049.19 17.6616 1049.28 17.6015 1049.38 17.5606C1049.47 17.5196 1049.58 17.4985 1049.69 17.4985C1049.79 17.4985 1049.9 17.5196 1050 17.5606C1050.1 17.6015 1050.19 17.6616 1050.26 17.7372L1053.51 20.9872C1053.59 21.0627 1053.65 21.1524 1053.69 21.2511C1053.73 21.3498 1053.75 21.4556 1053.75 21.5625C1053.75 21.6694 1053.73 21.7752 1053.69 21.8739C1053.65 21.9726 1053.59 22.0623 1053.51 22.1377L1050.26 25.3877C1050.11 25.5403 1049.9 25.626 1049.69 25.626C1049.47 25.626 1049.26 25.5403 1049.11 25.3877C1048.96 25.2352 1048.87 25.0282 1048.87 24.8125C1048.87 24.5967 1048.96 24.3898 1049.11 24.2372L1051.79 21.5625L1049.11 18.8877C1049.04 18.8123 1048.98 18.7226 1048.94 18.6239C1048.89 18.5252 1048.87 18.4194 1048.87 18.3125C1048.87 18.2056 1048.89 18.0998 1048.94 18.0011C1048.98 17.9024 1049.04 17.8127 1049.11 17.7372V17.7372Z" fill="white"/>
</g>
<path d="M412.437 36L422.581 13.6H425.749L435.925 36H432.565L423.509 15.392H424.789L415.733 36H412.437ZM416.757 30.4L417.621 27.84H430.229L431.157 30.4H416.757ZM447.81 36.192C446.402 36.192 445.112 35.872 443.938 35.232C442.786 34.5707 441.858 33.6 441.154 32.32C440.472 31.04 440.13 29.44 440.13 27.52C440.13 25.6 440.461 24 441.122 22.72C441.805 21.44 442.722 20.48 443.874 19.84C445.048 19.2 446.36 18.88 447.81 18.88C449.474 18.88 450.946 19.2427 452.226 19.968C453.506 20.6933 454.52 21.7067 455.266 23.008C456.013 24.288 456.386 25.792 456.386 27.52C456.386 29.248 456.013 30.7627 455.266 32.064C454.52 33.3653 453.506 34.3787 452.226 35.104C450.946 35.8293 449.474 36.192 447.81 36.192ZM438.818 42.208V19.04H441.762V23.616L441.57 27.552L441.89 31.488V42.208H438.818ZM447.554 33.504C448.642 33.504 449.613 33.2587 450.466 32.768C451.341 32.2773 452.024 31.584 452.514 30.688C453.026 29.7707 453.282 28.7147 453.282 27.52C453.282 26.304 453.026 25.2587 452.514 24.384C452.024 23.488 451.341 22.7947 450.466 22.304C449.613 21.8133 448.642 21.568 447.554 21.568C446.488 21.568 445.517 21.8133 444.642 22.304C443.789 22.7947 443.106 23.488 442.594 24.384C442.104 25.2587 441.858 26.304 441.858 27.52C441.858 28.7147 442.104 29.7707 442.594 30.688C443.106 31.584 443.789 32.2773 444.642 32.768C445.517 33.2587 446.488 33.504 447.554 33.504ZM469.623 36.192C468.215 36.192 466.924 35.872 465.751 35.232C464.599 34.5707 463.671 33.6 462.967 32.32C462.284 31.04 461.943 29.44 461.943 27.52C461.943 25.6 462.273 24 462.935 22.72C463.617 21.44 464.535 20.48 465.687 19.84C466.86 19.2 468.172 18.88 469.623 18.88C471.287 18.88 472.759 19.2427 474.039 19.968C475.319 20.6933 476.332 21.7067 477.079 23.008C477.825 24.288 478.199 25.792 478.199 27.52C478.199 29.248 477.825 30.7627 477.079 32.064C476.332 33.3653 475.319 34.3787 474.039 35.104C472.759 35.8293 471.287 36.192 469.623 36.192ZM460.631 42.208V19.04H463.575V23.616L463.383 27.552L463.703 31.488V42.208H460.631ZM469.367 33.504C470.455 33.504 471.425 33.2587 472.279 32.768C473.153 32.2773 473.836 31.584 474.327 30.688C474.839 29.7707 475.095 28.7147 475.095 27.52C475.095 26.304 474.839 25.2587 474.327 24.384C473.836 23.488 473.153 22.7947 472.279 22.304C471.425 21.8133 470.455 21.568 469.367 21.568C468.3 21.568 467.329 21.8133 466.455 22.304C465.601 22.7947 464.919 23.488 464.407 24.384C463.916 25.2587 463.671 26.304 463.671 27.52C463.671 28.7147 463.916 29.7707 464.407 30.688C464.919 31.584 465.601 32.2773 466.455 32.768C467.329 33.2587 468.3 33.504 469.367 33.504Z" fill="white"/>
<g clip-path="url(#clip1_2_16)">
<path fill-rule="evenodd" clip-rule="evenodd" d="M401.75 14.25H382.25C381.819 14.25 381.406 14.4212 381.101 14.726C380.796 15.0307 380.625 15.444 380.625 15.875V32.125C380.625 32.556 380.796 32.9693 381.101 33.274C381.406 33.5788 381.819 33.75 382.25 33.75H401.75C402.181 33.75 402.594 33.5788 402.899 33.274C403.204 32.9693 403.375 32.556 403.375 32.125V15.875C403.375 15.444 403.204 15.0307 402.899 14.726C402.594 14.4212 402.181 14.25 401.75 14.25V14.25ZM382.25 12.625C381.388 12.625 380.561 12.9674 379.952 13.5769C379.342 14.1864 379 15.013 379 15.875V32.125C379 32.987 379.342 33.8136 379.952 34.4231C380.561 35.0326 381.388 35.375 382.25 35.375H401.75C402.612 35.375 403.439 35.0326 404.048 34.4231C404.658 33.8136 405 32.987 405 32.125V15.875C405 15.013 404.658 14.1864 404.048 13.5769C403.439 12.9674 402.612 12.625 401.75 12.625H382.25Z" fill="white"/>
<path fill-rule="evenodd" clip-rule="evenodd" d="M403.375 20.75H380.625V19.125H403.375V20.75Z" fill="white"/>
<path d="M383.875 16.6875C383.875 16.903 383.789 17.1097 383.637 17.262C383.485 17.4144 383.278 17.5 383.062 17.5C382.847 17.5 382.64 17.4144 382.488 17.262C382.336 17.1097 382.25 16.903 382.25 16.6875C382.25 16.472 382.336 16.2653 382.488 16.113C382.64 15.9606 382.847 15.875 383.062 15.875C383.278 15.875 383.485 15.9606 383.637 16.113C383.789 16.2653 383.875 16.472 383.875 16.6875V16.6875ZM386.312 16.6875C386.312 16.903 386.227 17.1097 386.075 17.262C385.922 17.4144 385.715 17.5 385.5 17.5C385.285 17.5 385.078 17.4144 384.925 17.262C384.773 17.1097 384.688 16.903 384.688 16.6875C384.688 16.472 384.773 16.2653 384.925 16.113C385.078 15.9606 385.285 15.875 385.5 15.875C385.715 15.875 385.922 15.9606 386.075 16.113C386.227 16.2653 386.312 16.472 386.312 16.6875ZM388.75 16.6875C388.75 16.903 388.664 17.1097 388.512 17.262C388.36 17.4144 388.153 17.5 387.938 17.5C387.722 17.5 387.515 17.4144 387.363 17.262C387.211 17.1097 387.125 16.903 387.125 16.6875C387.125 16.472 387.211 16.2653 387.363 16.113C387.515 15.9606 387.722 15.875 387.938 15.875C388.153 15.875 388.36 15.9606 388.512 16.113C388.664 16.2653 388.75 16.472 388.75 16.6875Z" fill="white"/>
</g>
<line x1="102" y1="50" x2="102" y2="1082" stroke="#EC5F67" stroke-opacity="0.4" stroke-width="4"/>
<line x1="432" y1="50" x2="432" y2="1082" stroke="#EC5F67" stroke-opacity="0.4" stroke-width="4"/>
<line x1="762" y1="50" x2="762" y2="1082" stroke="#EC5F67" stroke-opacity="0.4" stroke-width="4"/>
<line x1="1092" y1="50" x2="1092" y2="1082" stroke="#EC5F67" stroke-opacity="0.4" stroke-width="4"/>
<rect y="136" width="530" height="50" fill="#EC5F67" fill-opacity="0.5"/>
<path d="M35.808 173V153.384H28.128V150.6H46.656V153.384H38.976V173H35.808ZM58.7493 155.88C60.1359 155.88 61.3519 156.147 62.3973 156.68C63.4639 157.213 64.2959 158.024 64.8933 159.112C65.4906 160.2 65.7893 161.576 65.7893 163.24V173H62.7173V163.592C62.7173 161.949 62.3119 160.712 61.5013 159.88C60.7119 159.048 59.5919 158.632 58.1413 158.632C57.0533 158.632 56.1039 158.845 55.2933 159.272C54.4826 159.699 53.8533 160.328 53.4053 161.16C52.9786 161.992 52.7653 163.027 52.7653 164.264V173H49.6933V149.256H52.7653V160.616L52.1573 159.4C52.7119 158.291 53.5653 157.427 54.7173 156.808C55.8693 156.189 57.2133 155.88 58.7493 155.88ZM79.0265 173.192C77.2132 173.192 75.6132 172.819 74.2265 172.072C72.8612 171.325 71.7945 170.301 71.0265 169C70.2798 167.699 69.9065 166.205 69.9065 164.52C69.9065 162.835 70.2692 161.341 70.9945 160.04C71.7412 158.739 72.7545 157.725 74.0345 157C75.3358 156.253 76.7972 155.88 78.4185 155.88C80.0612 155.88 81.5118 156.243 82.7705 156.968C84.0292 157.693 85.0105 158.717 85.7145 160.04C86.4398 161.341 86.8025 162.867 86.8025 164.616C86.8025 164.744 86.7918 164.893 86.7705 165.064C86.7705 165.235 86.7598 165.395 86.7385 165.544H72.3065V163.336H85.1385L83.8905 164.104C83.9118 163.016 83.6878 162.045 83.2185 161.192C82.7492 160.339 82.0985 159.677 81.2665 159.208C80.4558 158.717 79.5065 158.472 78.4185 158.472C77.3518 158.472 76.4025 158.717 75.5705 159.208C74.7385 159.677 74.0878 160.349 73.6185 161.224C73.1492 162.077 72.9145 163.059 72.9145 164.168V164.68C72.9145 165.811 73.1705 166.824 73.6825 167.72C74.2158 168.595 74.9518 169.277 75.8905 169.768C76.8292 170.259 77.9065 170.504 79.1225 170.504C80.1252 170.504 81.0318 170.333 81.8425 169.992C82.6745 169.651 83.3998 169.139 84.0185 168.456L85.7145 170.44C84.9465 171.336 83.9865 172.019 82.8345 172.488C81.7038 172.957 80.4345 173.192 79.0265 173.192ZM106.798 173.192C105.347 173.192 104.067 172.925 102.958 172.392C101.87 171.859 101.017 171.048 100.398 169.96C99.8007 168.851 99.502 167.464 99.502 165.8V156.04H102.574V165.448C102.574 167.112 102.969 168.36 103.758 169.192C104.569 170.024 105.699 170.44 107.15 170.44C108.217 170.44 109.145 170.227 109.934 169.8C110.723 169.352 111.331 168.712 111.758 167.88C112.185 167.027 112.398 166.003 112.398 164.808V156.04H115.47V173H112.558V168.424L113.038 169.64C112.483 170.771 111.651 171.645 110.542 172.264C109.433 172.883 108.185 173.192 106.798 173.192ZM126.182 173.192C124.774 173.192 123.43 173 122.15 172.616C120.892 172.232 119.9 171.763 119.174 171.208L120.454 168.776C121.18 169.267 122.076 169.683 123.142 170.024C124.209 170.365 125.297 170.536 126.406 170.536C127.836 170.536 128.86 170.333 129.478 169.928C130.118 169.523 130.438 168.957 130.438 168.232C130.438 167.699 130.246 167.283 129.862 166.984C129.478 166.685 128.966 166.461 128.326 166.312C127.708 166.163 127.014 166.035 126.246 165.928C125.478 165.8 124.71 165.651 123.942 165.48C123.174 165.288 122.47 165.032 121.83 164.712C121.19 164.371 120.678 163.912 120.294 163.336C119.91 162.739 119.718 161.949 119.718 160.968C119.718 159.944 120.006 159.048 120.582 158.28C121.158 157.512 121.969 156.925 123.014 156.52C124.081 156.093 125.34 155.88 126.79 155.88C127.9 155.88 129.02 156.019 130.15 156.296C131.302 156.552 132.241 156.925 132.966 157.416L131.654 159.848C130.886 159.336 130.086 158.984 129.254 158.792C128.422 158.6 127.59 158.504 126.758 158.504C125.414 158.504 124.412 158.728 123.75 159.176C123.089 159.603 122.758 160.157 122.758 160.84C122.758 161.416 122.95 161.864 123.334 162.184C123.74 162.483 124.252 162.717 124.87 162.888C125.51 163.059 126.214 163.208 126.982 163.336C127.75 163.443 128.518 163.592 129.286 163.784C130.054 163.955 130.748 164.2 131.366 164.52C132.006 164.84 132.518 165.288 132.902 165.864C133.308 166.44 133.51 167.208 133.51 168.168C133.51 169.192 133.212 170.077 132.614 170.824C132.017 171.571 131.174 172.157 130.086 172.584C128.998 172.989 127.697 173.192 126.182 173.192ZM144.902 173.192C143.088 173.192 141.488 172.819 140.102 172.072C138.736 171.325 137.67 170.301 136.902 169C136.155 167.699 135.782 166.205 135.782 164.52C135.782 162.835 136.144 161.341 136.87 160.04C137.616 158.739 138.63 157.725 139.91 157C141.211 156.253 142.672 155.88 144.294 155.88C145.936 155.88 147.387 156.243 148.646 156.968C149.904 157.693 150.886 158.717 151.59 160.04C152.315 161.341 152.678 162.867 152.678 164.616C152.678 164.744 152.667 164.893 152.646 165.064C152.646 165.235 152.635 165.395 152.614 165.544H138.182V163.336H151.014L149.766 164.104C149.787 163.016 149.563 162.045 149.094 161.192C148.624 160.339 147.974 159.677 147.142 159.208C146.331 158.717 145.382 158.472 144.294 158.472C143.227 158.472 142.278 158.717 141.446 159.208C140.614 159.677 139.963 160.349 139.494 161.224C139.024 162.077 138.79 163.059 138.79 164.168V164.68C138.79 165.811 139.046 166.824 139.558 167.72C140.091 168.595 140.827 169.277 141.766 169.768C142.704 170.259 143.782 170.504 144.998 170.504C146 170.504 146.907 170.333 147.718 169.992C148.55 169.651 149.275 169.139 149.894 168.456L151.59 170.44C150.822 171.336 149.862 172.019 148.71 172.488C147.579 172.957 146.31 173.192 144.902 173.192ZM156.943 173V156.04H159.887V160.648L159.599 159.496C160.069 158.323 160.858 157.427 161.967 156.808C163.077 156.189 164.442 155.88 166.063 155.88V158.856C165.935 158.835 165.807 158.824 165.679 158.824C165.573 158.824 165.466 158.824 165.359 158.824C163.717 158.824 162.415 159.315 161.455 160.296C160.495 161.277 160.015 162.696 160.015 164.552V173H156.943ZM186.054 173.192C184.326 173.192 182.779 172.819 181.414 172.072C180.07 171.325 179.014 170.301 178.246 169C177.478 167.699 177.094 166.205 177.094 164.52C177.094 162.835 177.478 161.341 178.246 160.04C179.014 158.739 180.07 157.725 181.414 157C182.779 156.253 184.326 155.88 186.054 155.88C187.59 155.88 188.955 156.189 190.15 156.808C191.366 157.405 192.305 158.301 192.966 159.496L190.63 161C190.075 160.168 189.393 159.56 188.582 159.176C187.793 158.771 186.939 158.568 186.022 158.568C184.913 158.568 183.921 158.813 183.046 159.304C182.171 159.795 181.478 160.488 180.966 161.384C180.454 162.259 180.198 163.304 180.198 164.52C180.198 165.736 180.454 166.792 180.966 167.688C181.478 168.584 182.171 169.277 183.046 169.768C183.921 170.259 184.913 170.504 186.022 170.504C186.939 170.504 187.793 170.312 188.582 169.928C189.393 169.523 190.075 168.904 190.63 168.072L192.966 169.544C192.305 170.717 191.366 171.624 190.15 172.264C188.955 172.883 187.59 173.192 186.054 173.192ZM196.725 173V149.256H199.797V173H196.725ZM205.662 173V156.04H208.734V173H205.662ZM207.198 152.776C206.601 152.776 206.099 152.584 205.694 152.2C205.31 151.816 205.118 151.347 205.118 150.792C205.118 150.216 205.31 149.736 205.694 149.352C206.099 148.968 206.601 148.776 207.198 148.776C207.795 148.776 208.286 148.968 208.67 149.352C209.075 149.715 209.278 150.173 209.278 150.728C209.278 151.304 209.086 151.795 208.702 152.2C208.318 152.584 207.817 152.776 207.198 152.776ZM221.992 173.192C220.264 173.192 218.717 172.819 217.352 172.072C216.008 171.325 214.952 170.301 214.184 169C213.416 167.699 213.032 166.205 213.032 164.52C213.032 162.835 213.416 161.341 214.184 160.04C214.952 158.739 216.008 157.725 217.352 157C218.717 156.253 220.264 155.88 221.992 155.88C223.528 155.88 224.893 156.189 226.088 156.808C227.304 157.405 228.242 158.301 228.904 159.496L226.568 161C226.013 160.168 225.33 159.56 224.52 159.176C223.73 158.771 222.877 158.568 221.96 158.568C220.85 158.568 219.858 158.813 218.984 159.304C218.109 159.795 217.416 160.488 216.904 161.384C216.392 162.259 216.136 163.304 216.136 164.52C216.136 165.736 216.392 166.792 216.904 167.688C217.416 168.584 218.109 169.277 218.984 169.768C219.858 170.259 220.85 170.504 221.96 170.504C222.877 170.504 223.73 170.312 224.52 169.928C225.33 169.523 226.013 168.904 226.568 168.072L228.904 169.544C228.242 170.717 227.304 171.624 226.088 172.264C224.893 172.883 223.528 173.192 221.992 173.192ZM235.158 168.904L235.222 164.968L244.982 156.04H248.694L241.206 163.4L239.542 164.808L235.158 168.904ZM232.662 173V149.256H235.734V173H232.662ZM245.622 173L238.966 164.744L240.95 162.28L249.398 173H245.622ZM256.714 173.192C255.306 173.192 253.962 173 252.682 172.616C251.423 172.232 250.431 171.763 249.706 171.208L250.986 168.776C251.711 169.267 252.607 169.683 253.674 170.024C254.74 170.365 255.828 170.536 256.938 170.536C258.367 170.536 259.391 170.333 260.01 169.928C260.65 169.523 260.97 168.957 260.97 168.232C260.97 167.699 260.778 167.283 260.394 166.984C260.01 166.685 259.498 166.461 258.858 166.312C258.239 166.163 257.546 166.035 256.778 165.928C256.01 165.8 255.242 165.651 254.474 165.48C253.706 165.288 253.002 165.032 252.362 164.712C251.722 164.371 251.21 163.912 250.826 163.336C250.442 162.739 250.25 161.949 250.25 160.968C250.25 159.944 250.538 159.048 251.114 158.28C251.69 157.512 252.5 156.925 253.546 156.52C254.612 156.093 255.871 155.88 257.322 155.88C258.431 155.88 259.551 156.019 260.682 156.296C261.834 156.552 262.772 156.925 263.498 157.416L262.186 159.848C261.418 159.336 260.618 158.984 259.786 158.792C258.954 158.6 258.122 158.504 257.29 158.504C255.946 158.504 254.943 158.728 254.282 159.176C253.62 159.603 253.29 160.157 253.29 160.84C253.29 161.416 253.482 161.864 253.866 162.184C254.271 162.483 254.783 162.717 255.402 162.888C256.042 163.059 256.746 163.208 257.514 163.336C258.282 163.443 259.05 163.592 259.818 163.784C260.586 163.955 261.279 164.2 261.898 164.52C262.538 164.84 263.05 165.288 263.434 165.864C263.839 166.44 264.042 167.208 264.042 168.168C264.042 169.192 263.743 170.077 263.146 170.824C262.548 171.571 261.706 172.157 260.618 172.584C259.53 172.989 258.228 173.192 256.714 173.192ZM283.739 173.192C282.032 173.192 280.517 172.819 279.195 172.072C277.872 171.325 276.827 170.301 276.059 169C275.291 167.677 274.907 166.184 274.907 164.52C274.907 162.835 275.291 161.341 276.059 160.04C276.827 158.739 277.872 157.725 279.195 157C280.517 156.253 282.032 155.88 283.739 155.88C285.424 155.88 286.928 156.253 288.251 157C289.595 157.725 290.64 158.739 291.387 160.04C292.155 161.32 292.539 162.813 292.539 164.52C292.539 166.205 292.155 167.699 291.387 169C290.64 170.301 289.595 171.325 288.251 172.072C286.928 172.819 285.424 173.192 283.739 173.192ZM283.739 170.504C284.827 170.504 285.797 170.259 286.651 169.768C287.525 169.277 288.208 168.584 288.699 167.688C289.189 166.771 289.435 165.715 289.435 164.52C289.435 163.304 289.189 162.259 288.699 161.384C288.208 160.488 287.525 159.795 286.651 159.304C285.797 158.813 284.827 158.568 283.739 158.568C282.651 158.568 281.68 158.813 280.827 159.304C279.973 159.795 279.291 160.488 278.779 161.384C278.267 162.259 278.011 163.304 278.011 164.52C278.011 165.715 278.267 166.771 278.779 167.688C279.291 168.584 279.973 169.277 280.827 169.768C281.68 170.259 282.651 170.504 283.739 170.504ZM305.843 155.88C307.23 155.88 308.446 156.147 309.491 156.68C310.558 157.213 311.39 158.024 311.987 159.112C312.584 160.2 312.883 161.576 312.883 163.24V173H309.811V163.592C309.811 161.949 309.406 160.712 308.595 159.88C307.806 159.048 306.686 158.632 305.235 158.632C304.147 158.632 303.198 158.845 302.387 159.272C301.576 159.699 300.947 160.328 300.499 161.16C300.072 161.992 299.859 163.027 299.859 164.264V173H296.787V156.04H299.731V160.616L299.251 159.4C299.806 158.291 300.659 157.427 301.811 156.808C302.963 156.189 304.307 155.88 305.843 155.88ZM337.69 173V169.416L337.53 168.744V162.632C337.53 161.331 337.146 160.328 336.378 159.624C335.631 158.899 334.501 158.536 332.986 158.536C331.983 158.536 331.002 158.707 330.042 159.048C329.082 159.368 328.271 159.805 327.61 160.36L326.33 158.056C327.205 157.352 328.25 156.819 329.466 156.456C330.703 156.072 331.994 155.88 333.338 155.88C335.663 155.88 337.455 156.445 338.714 157.576C339.973 158.707 340.602 160.435 340.602 162.76V173H337.69ZM332.122 173.192C330.863 173.192 329.754 172.979 328.794 172.552C327.855 172.125 327.13 171.539 326.618 170.792C326.106 170.024 325.85 169.16 325.85 168.2C325.85 167.283 326.063 166.451 326.49 165.704C326.938 164.957 327.653 164.36 328.634 163.912C329.637 163.464 330.981 163.24 332.666 163.24H338.042V165.448H332.794C331.258 165.448 330.223 165.704 329.69 166.216C329.157 166.728 328.89 167.347 328.89 168.072C328.89 168.904 329.221 169.576 329.882 170.088C330.543 170.579 331.461 170.824 332.634 170.824C333.786 170.824 334.789 170.568 335.642 170.056C336.517 169.544 337.146 168.797 337.53 167.816L338.138 169.928C337.733 170.931 337.018 171.731 335.994 172.328C334.97 172.904 333.679 173.192 332.122 173.192ZM354.881 173V149.256H357.953V173H354.881ZM371.082 173.192C369.376 173.192 367.861 172.819 366.538 172.072C365.216 171.325 364.17 170.301 363.402 169C362.634 167.677 362.25 166.184 362.25 164.52C362.25 162.835 362.634 161.341 363.402 160.04C364.17 158.739 365.216 157.725 366.538 157C367.861 156.253 369.376 155.88 371.082 155.88C372.768 155.88 374.272 156.253 375.594 157C376.938 157.725 377.984 158.739 378.73 160.04C379.498 161.32 379.882 162.813 379.882 164.52C379.882 166.205 379.498 167.699 378.73 169C377.984 170.301 376.938 171.325 375.594 172.072C374.272 172.819 372.768 173.192 371.082 173.192ZM371.082 170.504C372.17 170.504 373.141 170.259 373.994 169.768C374.869 169.277 375.552 168.584 376.042 167.688C376.533 166.771 376.778 165.715 376.778 164.52C376.778 163.304 376.533 162.259 376.042 161.384C375.552 160.488 374.869 159.795 373.994 159.304C373.141 158.813 372.17 158.568 371.082 158.568C369.994 158.568 369.024 158.813 368.17 159.304C367.317 159.795 366.634 160.488 366.122 161.384C365.61 162.259 365.354 163.304 365.354 164.52C365.354 165.715 365.61 166.771 366.122 167.688C366.634 168.584 367.317 169.277 368.17 169.768C369.024 170.259 369.994 170.504 371.082 170.504ZM391.555 179.4C389.997 179.4 388.483 179.176 387.011 178.728C385.56 178.301 384.376 177.683 383.459 176.872L384.931 174.504C385.72 175.187 386.691 175.72 387.843 176.104C388.995 176.509 390.2 176.712 391.459 176.712C393.464 176.712 394.936 176.243 395.875 175.304C396.813 174.365 397.283 172.936 397.283 171.016V167.432L397.603 164.072L397.443 160.68V156.04H400.355V170.696C400.355 173.683 399.608 175.88 398.115 177.288C396.621 178.696 394.435 179.4 391.555 179.4ZM391.171 172.296C389.528 172.296 388.056 171.955 386.755 171.272C385.475 170.568 384.451 169.597 383.683 168.36C382.936 167.123 382.563 165.693 382.563 164.072C382.563 162.429 382.936 161 383.683 159.784C384.451 158.547 385.475 157.587 386.755 156.904C388.056 156.221 389.528 155.88 391.171 155.88C392.621 155.88 393.944 156.179 395.139 156.776C396.333 157.352 397.283 158.248 397.987 159.464C398.712 160.68 399.075 162.216 399.075 164.072C399.075 165.907 398.712 167.432 397.987 168.648C397.283 169.864 396.333 170.781 395.139 171.4C393.944 171.997 392.621 172.296 391.171 172.296ZM391.523 169.608C392.653 169.608 393.656 169.373 394.531 168.904C395.405 168.435 396.088 167.784 396.579 166.952C397.091 166.12 397.347 165.16 397.347 164.072C397.347 162.984 397.091 162.024 396.579 161.192C396.088 160.36 395.405 159.72 394.531 159.272C393.656 158.803 392.653 158.568 391.523 158.568C390.392 158.568 389.379 158.803 388.483 159.272C387.608 159.72 386.915 160.36 386.403 161.192C385.912 162.024 385.667 162.984 385.667 164.072C385.667 165.16 385.912 166.12 386.403 166.952C386.915 167.784 387.608 168.435 388.483 168.904C389.379 169.373 390.392 169.608 391.523 169.608ZM406.225 173V156.04H409.297V173H406.225ZM407.761 152.776C407.163 152.776 406.662 152.584 406.257 152.2C405.873 151.816 405.681 151.347 405.681 150.792C405.681 150.216 405.873 149.736 406.257 149.352C406.662 148.968 407.163 148.776 407.761 148.776C408.358 148.776 408.849 148.968 409.233 149.352C409.638 149.715 409.841 150.173 409.841 150.728C409.841 151.304 409.649 151.795 409.265 152.2C408.881 152.584 408.379 152.776 407.761 152.776ZM424.218 155.88C425.605 155.88 426.821 156.147 427.866 156.68C428.933 157.213 429.765 158.024 430.362 159.112C430.959 160.2 431.258 161.576 431.258 163.24V173H428.186V163.592C428.186 161.949 427.781 160.712 426.97 159.88C426.181 159.048 425.061 158.632 423.61 158.632C422.522 158.632 421.573 158.845 420.762 159.272C419.951 159.699 419.322 160.328 418.874 161.16C418.447 161.992 418.234 163.027 418.234 164.264V173H415.162V156.04H418.106V160.616L417.626 159.4C418.181 158.291 419.034 157.427 420.186 156.808C421.338 156.189 422.682 155.88 424.218 155.88ZM445.537 173V149.256H448.609V173H445.537ZM454.475 173V156.04H457.547V173H454.475ZM456.011 152.776C455.413 152.776 454.912 152.584 454.507 152.2C454.123 151.816 453.931 151.347 453.931 150.792C453.931 150.216 454.123 149.736 454.507 149.352C454.912 148.968 455.413 148.776 456.011 148.776C456.608 148.776 457.099 148.968 457.483 149.352C457.888 149.715 458.091 150.173 458.091 150.728C458.091 151.304 457.899 151.795 457.515 152.2C457.131 152.584 456.629 152.776 456.011 152.776ZM472.468 155.88C473.855 155.88 475.071 156.147 476.116 156.68C477.183 157.213 478.015 158.024 478.612 159.112C479.209 160.2 479.508 161.576 479.508 163.24V173H476.436V163.592C476.436 161.949 476.031 160.712 475.22 159.88C474.431 159.048 473.311 158.632 471.86 158.632C470.772 158.632 469.823 158.845 469.012 159.272C468.201 159.699 467.572 160.328 467.124 161.16C466.697 161.992 466.484 163.027 466.484 164.264V173H463.412V156.04H466.356V160.616L465.876 159.4C466.431 158.291 467.284 157.427 468.436 156.808C469.588 156.189 470.932 155.88 472.468 155.88ZM487.689 168.904L487.753 164.968L497.513 156.04H501.225L493.737 163.4L492.073 164.808L487.689 168.904ZM485.193 173V149.256H488.265V173H485.193ZM498.153 173L491.497 164.744L493.481 162.28L501.929 173H498.153Z" fill="white"/>
<path d="M549.728 162.224L540.819 170.017C539.77 170.937 538.125 170.189 538.125 168.794V153.207C538.125 152.894 538.215 152.588 538.384 152.326C538.553 152.063 538.794 151.855 539.078 151.725C539.363 151.596 539.678 151.552 539.988 151.598C540.297 151.643 540.586 151.777 540.821 151.983L549.726 159.776C549.9 159.929 550.04 160.117 550.136 160.328C550.232 160.539 550.282 160.768 550.282 161C550.282 161.232 550.232 161.461 550.136 161.672C550.04 161.883 549.9 162.071 549.726 162.224H549.728Z" fill="#EC5F67" fill-opacity="0.5"/>
<path d="M549.728 162.224L540.819 170.017C539.77 170.937 538.125 170.189 538.125 168.794V153.207C538.125 152.894 538.215 152.588 538.384 152.326C538.553 152.063 538.794 151.855 539.078 151.725C539.363 151.596 539.678 151.552 539.988 151.598C540.297 151.643 540.586 151.777 540.821 151.983L549.726 159.776C549.9 159.929 550.04 160.117 550.136 160.328C550.232 160.539 550.282 160.768 550.282 161C550.282 161.232 550.232 161.461 550.136 161.672C550.04 161.883 549.9 162.071 549.726 162.224H549.728Z" fill="#EC5F67" fill-opacity="0.5"/>
<rect x="230" y="241" width="400" height="334" fill="#EC5F67"/>
<path d="M266.472 288.256C264.744 288.256 263.155 287.979 261.704 287.424C260.253 286.848 258.995 286.048 257.928 285.024C256.861 283.979 256.029 282.763 255.432 281.376C254.835 279.989 254.536 278.464 254.536 276.8C254.536 275.136 254.835 273.611 255.432 272.224C256.029 270.837 256.861 269.632 257.928 268.608C259.016 267.563 260.285 266.763 261.736 266.208C263.187 265.632 264.787 265.344 266.536 265.344C268.307 265.344 269.928 265.632 271.4 266.208C272.872 266.784 274.12 267.648 275.144 268.8L273.16 270.784C272.243 269.888 271.24 269.237 270.152 268.832C269.085 268.405 267.923 268.192 266.664 268.192C265.384 268.192 264.189 268.405 263.08 268.832C261.992 269.259 261.043 269.856 260.232 270.624C259.443 271.392 258.824 272.309 258.376 273.376C257.949 274.421 257.736 275.563 257.736 276.8C257.736 278.016 257.949 279.157 258.376 280.224C258.824 281.269 259.443 282.187 260.232 282.976C261.043 283.744 261.992 284.341 263.08 284.768C264.168 285.195 265.352 285.408 266.632 285.408C267.827 285.408 268.968 285.227 270.056 284.864C271.165 284.48 272.189 283.851 273.128 282.976L274.952 285.408C273.843 286.347 272.541 287.061 271.048 287.552C269.576 288.021 268.051 288.256 266.472 288.256ZM271.88 284.992V276.672H274.952V285.408L271.88 284.992ZM288.183 288.192C286.369 288.192 284.769 287.819 283.383 287.072C282.017 286.325 280.951 285.301 280.183 284C279.436 282.699 279.063 281.205 279.063 279.52C279.063 277.835 279.425 276.341 280.151 275.04C280.897 273.739 281.911 272.725 283.191 272C284.492 271.253 285.953 270.88 287.575 270.88C289.217 270.88 290.668 271.243 291.927 271.968C293.185 272.693 294.167 273.717 294.871 275.04C295.596 276.341 295.959 277.867 295.959 279.616C295.959 279.744 295.948 279.893 295.927 280.064C295.927 280.235 295.916 280.395 295.895 280.544H281.463V278.336H294.295L293.047 279.104C293.068 278.016 292.844 277.045 292.375 276.192C291.905 275.339 291.255 274.677 290.423 274.208C289.612 273.717 288.663 273.472 287.575 273.472C286.508 273.472 285.559 273.717 284.727 274.208C283.895 274.677 283.244 275.349 282.775 276.224C282.305 277.077 282.071 278.059 282.071 279.168V279.68C282.071 280.811 282.327 281.824 282.839 282.72C283.372 283.595 284.108 284.277 285.047 284.768C285.985 285.259 287.063 285.504 288.279 285.504C289.281 285.504 290.188 285.333 290.999 284.992C291.831 284.651 292.556 284.139 293.175 283.456L294.871 285.44C294.103 286.336 293.143 287.019 291.991 287.488C290.86 287.957 289.591 288.192 288.183 288.192ZM309.281 270.88C310.667 270.88 311.883 271.147 312.929 271.68C313.995 272.213 314.827 273.024 315.425 274.112C316.022 275.2 316.321 276.576 316.321 278.24V288H313.249V278.592C313.249 276.949 312.843 275.712 312.033 274.88C311.243 274.048 310.123 273.632 308.673 273.632C307.585 273.632 306.635 273.845 305.825 274.272C305.014 274.699 304.385 275.328 303.937 276.16C303.51 276.992 303.297 278.027 303.297 279.264V288H300.225V271.04H303.169V275.616L302.689 274.4C303.243 273.291 304.097 272.427 305.249 271.808C306.401 271.189 307.745 270.88 309.281 270.88ZM329.558 288.192C327.744 288.192 326.144 287.819 324.758 287.072C323.392 286.325 322.326 285.301 321.558 284C320.811 282.699 320.438 281.205 320.438 279.52C320.438 277.835 320.8 276.341 321.526 275.04C322.272 273.739 323.286 272.725 324.566 272C325.867 271.253 327.328 270.88 328.95 270.88C330.592 270.88 332.043 271.243 333.302 271.968C334.56 272.693 335.542 273.717 336.246 275.04C336.971 276.341 337.334 277.867 337.334 279.616C337.334 279.744 337.323 279.893 337.302 280.064C337.302 280.235 337.291 280.395 337.27 280.544H322.838V278.336H335.67L334.422 279.104C334.443 278.016 334.219 277.045 333.75 276.192C333.28 275.339 332.63 274.677 331.798 274.208C330.987 273.717 330.038 273.472 328.95 273.472C327.883 273.472 326.934 273.717 326.102 274.208C325.27 274.677 324.619 275.349 324.15 276.224C323.68 277.077 323.446 278.059 323.446 279.168V279.68C323.446 280.811 323.702 281.824 324.214 282.72C324.747 283.595 325.483 284.277 326.422 284.768C327.36 285.259 328.438 285.504 329.654 285.504C330.656 285.504 331.563 285.333 332.374 284.992C333.206 284.651 333.931 284.139 334.55 283.456L336.246 285.44C335.478 286.336 334.518 287.019 333.366 287.488C332.235 287.957 330.966 288.192 329.558 288.192ZM341.6 288V271.04H344.544V275.648L344.256 274.496C344.725 273.323 345.514 272.427 346.624 271.808C347.733 271.189 349.098 270.88 350.72 270.88V273.856C350.592 273.835 350.464 273.824 350.336 273.824C350.229 273.824 350.122 273.824 350.016 273.824C348.373 273.824 347.072 274.315 346.112 275.296C345.152 276.277 344.672 277.696 344.672 279.552V288H341.6ZM363.784 288V284.416L363.624 283.744V277.632C363.624 276.331 363.24 275.328 362.472 274.624C361.725 273.899 360.594 273.536 359.08 273.536C358.077 273.536 357.096 273.707 356.136 274.048C355.176 274.368 354.365 274.805 353.704 275.36L352.424 273.056C353.298 272.352 354.344 271.819 355.56 271.456C356.797 271.072 358.088 270.88 359.432 270.88C361.757 270.88 363.549 271.445 364.808 272.576C366.066 273.707 366.696 275.435 366.696 277.76V288H363.784ZM358.216 288.192C356.957 288.192 355.848 287.979 354.888 287.552C353.949 287.125 353.224 286.539 352.712 285.792C352.2 285.024 351.944 284.16 351.944 283.2C351.944 282.283 352.157 281.451 352.584 280.704C353.032 279.957 353.746 279.36 354.728 278.912C355.73 278.464 357.074 278.24 358.76 278.24H364.136V280.448H358.888C357.352 280.448 356.317 280.704 355.784 281.216C355.25 281.728 354.984 282.347 354.984 283.072C354.984 283.904 355.314 284.576 355.976 285.088C356.637 285.579 357.554 285.824 358.728 285.824C359.88 285.824 360.882 285.568 361.736 285.056C362.61 284.544 363.24 283.797 363.624 282.816L364.232 284.928C363.826 285.931 363.112 286.731 362.088 287.328C361.064 287.904 359.773 288.192 358.216 288.192ZM378.205 288.192C376.498 288.192 375.175 287.733 374.237 286.816C373.298 285.899 372.829 284.587 372.829 282.88V267.328H375.901V282.752C375.901 283.669 376.125 284.373 376.573 284.864C377.042 285.355 377.703 285.6 378.557 285.6C379.517 285.6 380.317 285.333 380.957 284.8L381.917 287.008C381.447 287.413 380.882 287.712 380.221 287.904C379.581 288.096 378.909 288.192 378.205 288.192ZM369.949 273.568V271.04H380.765V273.568H369.949ZM392.62 288.192C390.807 288.192 389.207 287.819 387.82 287.072C386.455 286.325 385.388 285.301 384.62 284C383.874 282.699 383.5 281.205 383.5 279.52C383.5 277.835 383.863 276.341 384.588 275.04C385.335 273.739 386.348 272.725 387.628 272C388.93 271.253 390.391 270.88 392.012 270.88C393.655 270.88 395.106 271.243 396.364 271.968C397.623 272.693 398.604 273.717 399.308 275.04C400.034 276.341 400.396 277.867 400.396 279.616C400.396 279.744 400.386 279.893 400.364 280.064C400.364 280.235 400.354 280.395 400.332 280.544H385.9V278.336H398.732L397.484 279.104C397.506 278.016 397.282 277.045 396.812 276.192C396.343 275.339 395.692 274.677 394.86 274.208C394.05 273.717 393.1 273.472 392.012 273.472C390.946 273.472 389.996 273.717 389.164 274.208C388.332 274.677 387.682 275.349 387.212 276.224C386.743 277.077 386.508 278.059 386.508 279.168V279.68C386.508 280.811 386.764 281.824 387.276 282.72C387.81 283.595 388.546 284.277 389.484 284.768C390.423 285.259 391.5 285.504 392.716 285.504C393.719 285.504 394.626 285.333 395.436 284.992C396.268 284.651 396.994 284.139 397.612 283.456L399.308 285.44C398.54 286.336 397.58 287.019 396.428 287.488C395.298 287.957 394.028 288.192 392.62 288.192ZM423.784 288V284.416L423.624 283.744V277.632C423.624 276.331 423.24 275.328 422.472 274.624C421.725 273.899 420.594 273.536 419.08 273.536C418.077 273.536 417.096 273.707 416.136 274.048C415.176 274.368 414.365 274.805 413.704 275.36L412.424 273.056C413.298 272.352 414.344 271.819 415.56 271.456C416.797 271.072 418.088 270.88 419.432 270.88C421.757 270.88 423.549 271.445 424.808 272.576C426.066 273.707 426.696 275.435 426.696 277.76V288H423.784ZM418.216 288.192C416.957 288.192 415.848 287.979 414.888 287.552C413.949 287.125 413.224 286.539 412.712 285.792C412.2 285.024 411.944 284.16 411.944 283.2C411.944 282.283 412.157 281.451 412.584 280.704C413.032 279.957 413.746 279.36 414.728 278.912C415.73 278.464 417.074 278.24 418.76 278.24H424.136V280.448H418.888C417.352 280.448 416.317 280.704 415.784 281.216C415.25 281.728 414.984 282.347 414.984 283.072C414.984 283.904 415.314 284.576 415.976 285.088C416.637 285.579 417.554 285.824 418.728 285.824C419.88 285.824 420.882 285.568 421.736 285.056C422.61 284.544 423.24 283.797 423.624 282.816L424.232 284.928C423.826 285.931 423.112 286.731 422.088 287.328C421.064 287.904 419.773 288.192 418.216 288.192ZM263.624 327.256C261.768 327.256 260.115 326.883 258.664 326.136C257.213 325.368 256.072 324.312 255.24 322.968C254.429 321.624 254.024 320.099 254.024 318.392C254.024 316.664 254.429 315.139 255.24 313.816C256.072 312.472 257.213 311.427 258.664 310.68C260.115 309.912 261.768 309.528 263.624 309.528C265.437 309.528 267.016 309.912 268.36 310.68C269.704 311.427 270.696 312.504 271.336 313.912L267.464 315.992C267.016 315.181 266.451 314.584 265.768 314.2C265.107 313.816 264.381 313.624 263.592 313.624C262.739 313.624 261.971 313.816 261.288 314.2C260.605 314.584 260.061 315.128 259.656 315.832C259.272 316.536 259.08 317.389 259.08 318.392C259.08 319.395 259.272 320.248 259.656 320.952C260.061 321.656 260.605 322.2 261.288 322.584C261.971 322.968 262.739 323.16 263.592 323.16C264.381 323.16 265.107 322.979 265.768 322.616C266.451 322.232 267.016 321.624 267.464 320.792L271.336 322.904C270.696 324.291 269.704 325.368 268.36 326.136C267.016 326.883 265.437 327.256 263.624 327.256ZM282.184 327.256C280.349 327.256 278.717 326.872 277.288 326.104C275.88 325.336 274.76 324.291 273.928 322.968C273.117 321.624 272.712 320.099 272.712 318.392C272.712 316.664 273.117 315.139 273.928 313.816C274.76 312.472 275.88 311.427 277.288 310.68C278.717 309.912 280.349 309.528 282.184 309.528C283.997 309.528 285.618 309.912 287.048 310.68C288.477 311.427 289.597 312.461 290.408 313.784C291.218 315.107 291.624 316.643 291.624 318.392C291.624 320.099 291.218 321.624 290.408 322.968C289.597 324.291 288.477 325.336 287.048 326.104C285.618 326.872 283.997 327.256 282.184 327.256ZM282.184 323.16C283.016 323.16 283.762 322.968 284.424 322.584C285.085 322.2 285.608 321.656 285.992 320.952C286.376 320.227 286.568 319.373 286.568 318.392C286.568 317.389 286.376 316.536 285.992 315.832C285.608 315.128 285.085 314.584 284.424 314.2C283.762 313.816 283.016 313.624 282.184 313.624C281.352 313.624 280.605 313.816 279.944 314.2C279.282 314.584 278.749 315.128 278.344 315.832C277.96 316.536 277.768 317.389 277.768 318.392C277.768 319.373 277.96 320.227 278.344 320.952C278.749 321.656 279.282 322.2 279.944 322.584C280.605 322.968 281.352 323.16 282.184 323.16ZM302.352 327.256C300.731 327.256 299.27 326.893 297.968 326.168C296.667 325.421 295.632 324.387 294.864 323.064C294.118 321.741 293.744 320.184 293.744 318.392C293.744 316.579 294.118 315.011 294.864 313.688C295.632 312.365 296.667 311.341 297.968 310.616C299.27 309.891 300.731 309.528 302.352 309.528C303.803 309.528 305.072 309.848 306.16 310.488C307.248 311.128 308.091 312.099 308.688 313.4C309.286 314.701 309.584 316.365 309.584 318.392C309.584 320.397 309.296 322.061 308.72 323.384C308.144 324.685 307.312 325.656 306.224 326.296C305.158 326.936 303.867 327.256 302.352 327.256ZM303.216 323.16C304.027 323.16 304.763 322.968 305.424 322.584C306.086 322.2 306.608 321.656 306.992 320.952C307.398 320.227 307.6 319.373 307.6 318.392C307.6 317.389 307.398 316.536 306.992 315.832C306.608 315.128 306.086 314.584 305.424 314.2C304.763 313.816 304.027 313.624 303.216 313.624C302.384 313.624 301.638 313.816 300.976 314.2C300.315 314.584 299.782 315.128 299.376 315.832C298.992 316.536 298.8 317.389 298.8 318.392C298.8 319.373 298.992 320.227 299.376 320.952C299.782 321.656 300.315 322.2 300.976 322.584C301.638 322.968 302.384 323.16 303.216 323.16ZM307.728 327V323.48L307.824 318.36L307.504 313.272V303.256H312.496V327H307.728ZM325.661 327.256C323.698 327.256 321.97 326.872 320.477 326.104C319.005 325.336 317.863 324.291 317.053 322.968C316.242 321.624 315.837 320.099 315.837 318.392C315.837 316.664 316.231 315.139 317.021 313.816C317.831 312.472 318.93 311.427 320.317 310.68C321.703 309.912 323.271 309.528 325.021 309.528C326.706 309.528 328.221 309.891 329.565 310.616C330.93 311.32 332.007 312.344 332.797 313.688C333.586 315.011 333.981 316.6 333.981 318.456C333.981 318.648 333.97 318.872 333.949 319.128C333.927 319.363 333.906 319.587 333.885 319.8H319.901V316.888H331.26L329.341 317.752C329.341 316.856 329.159 316.077 328.797 315.416C328.434 314.755 327.933 314.243 327.293 313.88C326.653 313.496 325.906 313.304 325.053 313.304C324.199 313.304 323.442 313.496 322.781 313.88C322.141 314.243 321.639 314.765 321.277 315.448C320.914 316.109 320.733 316.899 320.733 317.816V318.584C320.733 319.523 320.935 320.355 321.341 321.08C321.767 321.784 322.354 322.328 323.101 322.712C323.869 323.075 324.765 323.256 325.789 323.256C326.706 323.256 327.506 323.117 328.189 322.84C328.893 322.563 329.533 322.147 330.109 321.592L332.765 324.472C331.975 325.368 330.983 326.061 329.789 326.552C328.594 327.021 327.218 327.256 325.661 327.256ZM351.039 327L343.806 309.784H348.959L354.975 324.6H352.415L358.655 309.784H363.455L356.191 327H351.039ZM373.567 327.256C371.604 327.256 369.876 326.872 368.383 326.104C366.911 325.336 365.769 324.291 364.959 322.968C364.148 321.624 363.743 320.099 363.743 318.392C363.743 316.664 364.137 315.139 364.927 313.816C365.737 312.472 366.836 311.427 368.223 310.68C369.609 309.912 371.177 309.528 372.927 309.528C374.612 309.528 376.127 309.891 377.471 310.616C378.836 311.32 379.913 312.344 380.703 313.688C381.492 315.011 381.887 316.6 381.887 318.456C381.887 318.648 381.876 318.872 381.855 319.128C381.833 319.363 381.812 319.587 381.791 319.8H367.807V316.888H379.167L377.247 317.752C377.247 316.856 377.065 316.077 376.703 315.416C376.34 314.755 375.839 314.243 375.199 313.88C374.559 313.496 373.812 313.304 372.959 313.304C372.105 313.304 371.348 313.496 370.687 313.88C370.047 314.243 369.545 314.765 369.183 315.448C368.82 316.109 368.639 316.899 368.639 317.816V318.584C368.639 319.523 368.841 320.355 369.247 321.08C369.673 321.784 370.26 322.328 371.007 322.712C371.775 323.075 372.671 323.256 373.695 323.256C374.612 323.256 375.412 323.117 376.095 322.84C376.799 322.563 377.439 322.147 378.015 321.592L380.671 324.472C379.881 325.368 378.889 326.061 377.695 326.552C376.5 327.021 375.124 327.256 373.567 327.256ZM385.21 327V309.784H389.978V314.648L389.306 313.24C389.818 312.024 390.64 311.107 391.77 310.488C392.901 309.848 394.277 309.528 395.898 309.528V314.136C395.685 314.115 395.493 314.104 395.322 314.104C395.152 314.083 394.97 314.072 394.778 314.072C393.413 314.072 392.304 314.467 391.45 315.256C390.618 316.024 390.202 317.229 390.202 318.872V327H385.21ZM398.898 327V309.784H403.89V327H398.898ZM401.394 307.384C400.476 307.384 399.73 307.117 399.154 306.584C398.578 306.051 398.29 305.389 398.29 304.6C398.29 303.811 398.578 303.149 399.154 302.616C399.73 302.083 400.476 301.816 401.394 301.816C402.311 301.816 403.058 302.072 403.634 302.584C404.21 303.075 404.498 303.715 404.498 304.504C404.498 305.336 404.21 306.029 403.634 306.584C403.079 307.117 402.332 307.384 401.394 307.384ZM409.131 327V309.4C409.131 307.459 409.707 305.912 410.859 304.76C412.011 303.587 413.653 303 415.787 303C416.512 303 417.205 303.075 417.867 303.224C418.549 303.373 419.125 303.608 419.595 303.928L418.283 307.544C418.005 307.352 417.696 307.203 417.355 307.096C417.013 306.989 416.651 306.936 416.267 306.936C415.541 306.936 414.976 307.149 414.571 307.576C414.187 307.981 413.995 308.6 413.995 309.432V311.032L414.123 313.176V327H409.131ZM406.475 314.008V310.168H418.411V314.008H406.475ZM421.227 327V309.784H426.219V327H421.227ZM423.723 307.384C422.805 307.384 422.059 307.117 421.483 306.584C420.907 306.051 420.619 305.389 420.619 304.6C420.619 303.811 420.907 303.149 421.483 302.616C422.059 302.083 422.805 301.816 423.723 301.816C424.64 301.816 425.387 302.072 425.963 302.584C426.539 303.075 426.827 303.715 426.827 304.504C426.827 305.336 426.539 306.029 425.963 306.584C425.408 307.117 424.661 307.384 423.723 307.384ZM439.379 327.256C437.417 327.256 435.689 326.872 434.195 326.104C432.723 325.336 431.582 324.291 430.771 322.968C429.961 321.624 429.555 320.099 429.555 318.392C429.555 316.664 429.95 315.139 430.739 313.816C431.55 312.472 432.649 311.427 434.035 310.68C435.422 309.912 436.99 309.528 438.739 309.528C440.425 309.528 441.939 309.891 443.283 310.616C444.649 311.32 445.726 312.344 446.515 313.688C447.305 315.011 447.699 316.6 447.699 318.456C447.699 318.648 447.689 318.872 447.667 319.128C447.646 319.363 447.625 319.587 447.603 319.8H433.619V316.888H444.979L443.059 317.752C443.059 316.856 442.878 316.077 442.515 315.416C442.153 314.755 441.651 314.243 441.011 313.88C440.371 313.496 439.625 313.304 438.771 313.304C437.918 313.304 437.161 313.496 436.499 313.88C435.859 314.243 435.358 314.765 434.995 315.448C434.633 316.109 434.451 316.899 434.451 317.816V318.584C434.451 319.523 434.654 320.355 435.059 321.08C435.486 321.784 436.073 322.328 436.819 322.712C437.587 323.075 438.483 323.256 439.507 323.256C440.425 323.256 441.225 323.117 441.907 322.84C442.611 322.563 443.251 322.147 443.827 321.592L446.483 324.472C445.694 325.368 444.702 326.061 443.507 326.552C442.313 327.021 440.937 327.256 439.379 327.256ZM451.023 327V309.784H455.791V314.648L455.119 313.24C455.631 312.024 456.452 311.107 457.583 310.488C458.713 309.848 460.089 309.528 461.711 309.528V314.136C461.497 314.115 461.305 314.104 461.135 314.104C460.964 314.083 460.783 314.072 460.591 314.072C459.225 314.072 458.116 314.467 457.263 315.256C456.431 316.024 456.015 317.229 456.015 318.872V327H451.023ZM266.44 436V432.416L266.28 431.744V425.632C266.28 424.331 265.896 423.328 265.128 422.624C264.381 421.899 263.251 421.536 261.736 421.536C260.733 421.536 259.752 421.707 258.792 422.048C257.832 422.368 257.021 422.805 256.36 423.36L255.08 421.056C255.955 420.352 257 419.819 258.216 419.456C259.453 419.072 260.744 418.88 262.088 418.88C264.413 418.88 266.205 419.445 267.464 420.576C268.723 421.707 269.352 423.435 269.352 425.76V436H266.44ZM260.872 436.192C259.613 436.192 258.504 435.979 257.544 435.552C256.605 435.125 255.88 434.539 255.368 433.792C254.856 433.024 254.6 432.16 254.6 431.2C254.6 430.283 254.813 429.451 255.24 428.704C255.688 427.957 256.403 427.36 257.384 426.912C258.387 426.464 259.731 426.24 261.416 426.24H266.792V428.448H261.544C260.008 428.448 258.973 428.704 258.44 429.216C257.907 429.728 257.64 430.347 257.64 431.072C257.64 431.904 257.971 432.576 258.632 433.088C259.293 433.579 260.211 433.824 261.384 433.824C262.536 433.824 263.539 433.568 264.392 433.056C265.267 432.544 265.896 431.797 266.28 430.816L266.888 432.928C266.483 433.931 265.768 434.731 264.744 435.328C263.72 435.904 262.429 436.192 260.872 436.192ZM284.093 418.88C285.48 418.88 286.696 419.147 287.741 419.68C288.808 420.213 289.64 421.024 290.237 422.112C290.834 423.2 291.133 424.576 291.133 426.24V436H288.061V426.592C288.061 424.949 287.656 423.712 286.845 422.88C286.056 422.048 284.936 421.632 283.485 421.632C282.397 421.632 281.448 421.845 280.637 422.272C279.826 422.699 279.197 423.328 278.749 424.16C278.322 424.992 278.109 426.027 278.109 427.264V436H275.037V419.04H277.981V423.616L277.501 422.4C278.056 421.291 278.909 420.427 280.061 419.808C281.213 419.189 282.557 418.88 284.093 418.88ZM303.826 436.192C302.184 436.192 300.712 435.829 299.41 435.104C298.13 434.379 297.117 433.365 296.37 432.064C295.624 430.763 295.25 429.248 295.25 427.52C295.25 425.792 295.624 424.288 296.37 423.008C297.117 421.707 298.13 420.693 299.41 419.968C300.712 419.243 302.184 418.88 303.826 418.88C305.256 418.88 306.546 419.2 307.698 419.84C308.85 420.48 309.768 421.44 310.45 422.72C311.154 424 311.506 425.6 311.506 427.52C311.506 429.44 311.165 431.04 310.482 432.32C309.821 433.6 308.914 434.571 307.762 435.232C306.61 435.872 305.298 436.192 303.826 436.192ZM304.082 433.504C305.149 433.504 306.109 433.259 306.962 432.768C307.837 432.277 308.52 431.584 309.01 430.688C309.522 429.771 309.778 428.715 309.778 427.52C309.778 426.304 309.522 425.259 309.01 424.384C308.52 423.488 307.837 422.795 306.962 422.304C306.109 421.813 305.149 421.568 304.082 421.568C302.994 421.568 302.024 421.813 301.17 422.304C300.317 422.795 299.634 423.488 299.122 424.384C298.61 425.259 298.354 426.304 298.354 427.52C298.354 428.715 298.61 429.771 299.122 430.688C299.634 431.584 300.317 432.277 301.17 432.768C302.024 433.259 302.994 433.504 304.082 433.504ZM309.874 436V431.424L310.066 427.488L309.746 423.552V412.256H312.818V436H309.874ZM263.624 475.256C261.768 475.256 260.115 474.883 258.664 474.136C257.213 473.368 256.072 472.312 255.24 470.968C254.429 469.624 254.024 468.099 254.024 466.392C254.024 464.664 254.429 463.139 255.24 461.816C256.072 460.472 257.213 459.427 258.664 458.68C260.115 457.912 261.768 457.528 263.624 457.528C265.437 457.528 267.016 457.912 268.36 458.68C269.704 459.427 270.696 460.504 271.336 461.912L267.464 463.992C267.016 463.181 266.451 462.584 265.768 462.2C265.107 461.816 264.381 461.624 263.592 461.624C262.739 461.624 261.971 461.816 261.288 462.2C260.605 462.584 260.061 463.128 259.656 463.832C259.272 464.536 259.08 465.389 259.08 466.392C259.08 467.395 259.272 468.248 259.656 468.952C260.061 469.656 260.605 470.2 261.288 470.584C261.971 470.968 262.739 471.16 263.592 471.16C264.381 471.16 265.107 470.979 265.768 470.616C266.451 470.232 267.016 469.624 267.464 468.792L271.336 470.904C270.696 472.291 269.704 473.368 268.36 474.136C267.016 474.883 265.437 475.256 263.624 475.256ZM282.184 475.256C280.349 475.256 278.717 474.872 277.288 474.104C275.88 473.336 274.76 472.291 273.928 470.968C273.117 469.624 272.712 468.099 272.712 466.392C272.712 464.664 273.117 463.139 273.928 461.816C274.76 460.472 275.88 459.427 277.288 458.68C278.717 457.912 280.349 457.528 282.184 457.528C283.997 457.528 285.618 457.912 287.048 458.68C288.477 459.427 289.597 460.461 290.408 461.784C291.218 463.107 291.624 464.643 291.624 466.392C291.624 468.099 291.218 469.624 290.408 470.968C289.597 472.291 288.477 473.336 287.048 474.104C285.618 474.872 283.997 475.256 282.184 475.256ZM282.184 471.16C283.016 471.16 283.762 470.968 284.424 470.584C285.085 470.2 285.608 469.656 285.992 468.952C286.376 468.227 286.568 467.373 286.568 466.392C286.568 465.389 286.376 464.536 285.992 463.832C285.608 463.128 285.085 462.584 284.424 462.2C283.762 461.816 283.016 461.624 282.184 461.624C281.352 461.624 280.605 461.816 279.944 462.2C279.282 462.584 278.749 463.128 278.344 463.832C277.96 464.536 277.768 465.389 277.768 466.392C277.768 467.373 277.96 468.227 278.344 468.952C278.749 469.656 279.282 470.2 279.944 470.584C280.605 470.968 281.352 471.16 282.184 471.16ZM302.352 475.256C300.731 475.256 299.27 474.893 297.968 474.168C296.667 473.421 295.632 472.387 294.864 471.064C294.118 469.741 293.744 468.184 293.744 466.392C293.744 464.579 294.118 463.011 294.864 461.688C295.632 460.365 296.667 459.341 297.968 458.616C299.27 457.891 300.731 457.528 302.352 457.528C303.803 457.528 305.072 457.848 306.16 458.488C307.248 459.128 308.091 460.099 308.688 461.4C309.286 462.701 309.584 464.365 309.584 466.392C309.584 468.397 309.296 470.061 308.72 471.384C308.144 472.685 307.312 473.656 306.224 474.296C305.158 474.936 303.867 475.256 302.352 475.256ZM303.216 471.16C304.027 471.16 304.763 470.968 305.424 470.584C306.086 470.2 306.608 469.656 306.992 468.952C307.398 468.227 307.6 467.373 307.6 466.392C307.6 465.389 307.398 464.536 306.992 463.832C306.608 463.128 306.086 462.584 305.424 462.2C304.763 461.816 304.027 461.624 303.216 461.624C302.384 461.624 301.638 461.816 300.976 462.2C300.315 462.584 299.782 463.128 299.376 463.832C298.992 464.536 298.8 465.389 298.8 466.392C298.8 467.373 298.992 468.227 299.376 468.952C299.782 469.656 300.315 470.2 300.976 470.584C301.638 470.968 302.384 471.16 303.216 471.16ZM307.728 475V471.48L307.824 466.36L307.504 461.272V451.256H312.496V475H307.728ZM325.661 475.256C323.698 475.256 321.97 474.872 320.477 474.104C319.005 473.336 317.863 472.291 317.053 470.968C316.242 469.624 315.837 468.099 315.837 466.392C315.837 464.664 316.231 463.139 317.021 461.816C317.831 460.472 318.93 459.427 320.317 458.68C321.703 457.912 323.271 457.528 325.021 457.528C326.706 457.528 328.221 457.891 329.565 458.616C330.93 459.32 332.007 460.344 332.797 461.688C333.586 463.011 333.981 464.6 333.981 466.456C333.981 466.648 333.97 466.872 333.949 467.128C333.927 467.363 333.906 467.587 333.885 467.8H319.901V464.888H331.26L329.341 465.752C329.341 464.856 329.159 464.077 328.797 463.416C328.434 462.755 327.933 462.243 327.293 461.88C326.653 461.496 325.906 461.304 325.053 461.304C324.199 461.304 323.442 461.496 322.781 461.88C322.141 462.243 321.639 462.765 321.277 463.448C320.914 464.109 320.733 464.899 320.733 465.816V466.584C320.733 467.523 320.935 468.355 321.341 469.08C321.767 469.784 322.354 470.328 323.101 470.712C323.869 471.075 324.765 471.256 325.789 471.256C326.706 471.256 327.506 471.117 328.189 470.84C328.893 470.563 329.533 470.147 330.109 469.592L332.765 472.472C331.975 473.368 330.983 474.061 329.789 474.552C328.594 475.021 327.218 475.256 325.661 475.256ZM354.687 475.256C352.831 475.256 351.177 474.883 349.727 474.136C348.276 473.368 347.135 472.312 346.303 470.968C345.492 469.624 345.087 468.099 345.087 466.392C345.087 464.664 345.492 463.139 346.303 461.816C347.135 460.472 348.276 459.427 349.727 458.68C351.177 457.912 352.831 457.528 354.687 457.528C356.5 457.528 358.079 457.912 359.423 458.68C360.767 459.427 361.759 460.504 362.399 461.912L358.527 463.992C358.079 463.181 357.513 462.584 356.831 462.2C356.169 461.816 355.444 461.624 354.655 461.624C353.801 461.624 353.033 461.816 352.351 462.2C351.668 462.584 351.124 463.128 350.719 463.832C350.335 464.536 350.143 465.389 350.143 466.392C350.143 467.395 350.335 468.248 350.719 468.952C351.124 469.656 351.668 470.2 352.351 470.584C353.033 470.968 353.801 471.16 354.655 471.16C355.444 471.16 356.169 470.979 356.831 470.616C357.513 470.232 358.079 469.624 358.527 468.792L362.399 470.904C361.759 472.291 360.767 473.368 359.423 474.136C358.079 474.883 356.5 475.256 354.687 475.256ZM375.643 457.528C377.008 457.528 378.224 457.805 379.291 458.36C380.379 458.893 381.232 459.725 381.851 460.856C382.47 461.965 382.779 463.395 382.779 465.144V475H377.787V465.912C377.787 464.525 377.478 463.501 376.859 462.84C376.262 462.179 375.408 461.848 374.299 461.848C373.51 461.848 372.795 462.019 372.155 462.36C371.536 462.68 371.046 463.181 370.683 463.864C370.342 464.547 370.171 465.421 370.171 466.488V475H365.179V451.256H370.171V462.552L369.051 461.112C369.67 459.96 370.555 459.075 371.707 458.456C372.859 457.837 374.171 457.528 375.643 457.528ZM397.864 475V471.64L397.544 470.904V464.888C397.544 463.821 397.213 462.989 396.552 462.392C395.912 461.795 394.92 461.496 393.576 461.496C392.659 461.496 391.752 461.645 390.856 461.944C389.981 462.221 389.235 462.605 388.616 463.096L386.824 459.608C387.763 458.947 388.893 458.435 390.216 458.072C391.539 457.709 392.883 457.528 394.248 457.528C396.872 457.528 398.909 458.147 400.36 459.384C401.811 460.621 402.536 462.552 402.536 465.176V475H397.864ZM392.616 475.256C391.272 475.256 390.12 475.032 389.16 474.584C388.2 474.115 387.464 473.485 386.952 472.696C386.44 471.907 386.184 471.021 386.184 470.04C386.184 469.016 386.429 468.12 386.92 467.352C387.432 466.584 388.232 465.987 389.32 465.56C390.408 465.112 391.827 464.888 393.576 464.888H398.152V467.8H394.12C392.947 467.8 392.136 467.992 391.688 468.376C391.261 468.76 391.048 469.24 391.048 469.816C391.048 470.456 391.293 470.968 391.784 471.352C392.296 471.715 392.989 471.896 393.864 471.896C394.696 471.896 395.443 471.704 396.104 471.32C396.765 470.915 397.245 470.328 397.544 469.56L398.312 471.864C397.949 472.973 397.288 473.816 396.328 474.392C395.368 474.968 394.131 475.256 392.616 475.256ZM407.054 475V451.256H412.046V475H407.054ZM416.679 475V451.256H421.671V475H416.679ZM434.848 475.256C432.885 475.256 431.157 474.872 429.664 474.104C428.192 473.336 427.051 472.291 426.24 470.968C425.429 469.624 425.024 468.099 425.024 466.392C425.024 464.664 425.419 463.139 426.208 461.816C427.019 460.472 428.117 459.427 429.504 458.68C430.891 457.912 432.459 457.528 434.208 457.528C435.893 457.528 437.408 457.891 438.752 458.616C440.117 459.32 441.195 460.344 441.984 461.688C442.773 463.011 443.168 464.6 443.168 466.456C443.168 466.648 443.157 466.872 443.136 467.128C443.115 467.363 443.093 467.587 443.072 467.8H429.088V464.888H440.448L438.528 465.752C438.528 464.856 438.347 464.077 437.984 463.416C437.621 462.755 437.12 462.243 436.48 461.88C435.84 461.496 435.093 461.304 434.24 461.304C433.387 461.304 432.629 461.496 431.968 461.88C431.328 462.243 430.827 462.765 430.464 463.448C430.101 464.109 429.92 464.899 429.92 465.816V466.584C429.92 467.523 430.123 468.355 430.528 469.08C430.955 469.784 431.541 470.328 432.288 470.712C433.056 471.075 433.952 471.256 434.976 471.256C435.893 471.256 436.693 471.117 437.376 470.84C438.08 470.563 438.72 470.147 439.296 469.592L441.952 472.472C441.163 473.368 440.171 474.061 438.976 474.552C437.781 475.021 436.405 475.256 434.848 475.256ZM456.956 457.528C458.321 457.528 459.537 457.805 460.604 458.36C461.692 458.893 462.545 459.725 463.164 460.856C463.782 461.965 464.092 463.395 464.092 465.144V475H459.1V465.912C459.1 464.525 458.79 463.501 458.172 462.84C457.574 462.179 456.721 461.848 455.612 461.848C454.822 461.848 454.108 462.019 453.468 462.36C452.849 462.68 452.358 463.181 451.996 463.864C451.654 464.547 451.484 465.421 451.484 466.488V475H446.492V457.784H451.26V462.552L450.364 461.112C450.982 459.96 451.868 459.075 453.02 458.456C454.172 457.837 455.484 457.528 456.956 457.528ZM476.838 481.464C475.216 481.464 473.648 481.261 472.134 480.856C470.64 480.472 469.392 479.885 468.39 479.096L470.374 475.512C471.099 476.109 472.016 476.579 473.126 476.92C474.256 477.283 475.366 477.464 476.454 477.464C478.224 477.464 479.504 477.069 480.294 476.28C481.104 475.491 481.51 474.317 481.51 472.76V470.168L481.83 465.848L481.766 461.496V457.784H486.502V472.12C486.502 475.32 485.67 477.677 484.006 479.192C482.342 480.707 479.952 481.464 476.838 481.464ZM476.07 474.168C474.47 474.168 473.019 473.827 471.718 473.144C470.438 472.44 469.403 471.469 468.614 470.232C467.846 468.973 467.462 467.512 467.462 465.848C467.462 464.163 467.846 462.701 468.614 461.464C469.403 460.205 470.438 459.235 471.718 458.552C473.019 457.869 474.47 457.528 476.07 457.528C477.52 457.528 478.8 457.827 479.91 458.424C481.019 459 481.883 459.907 482.502 461.144C483.12 462.36 483.43 463.928 483.43 465.848C483.43 467.747 483.12 469.315 482.502 470.552C481.883 471.768 481.019 472.675 479.91 473.272C478.8 473.869 477.52 474.168 476.07 474.168ZM477.062 470.072C477.936 470.072 478.715 469.901 479.398 469.56C480.08 469.197 480.614 468.696 480.998 468.056C481.382 467.416 481.574 466.68 481.574 465.848C481.574 464.995 481.382 464.259 480.998 463.64C480.614 463 480.08 462.509 479.398 462.168C478.715 461.805 477.936 461.624 477.062 461.624C476.187 461.624 475.408 461.805 474.726 462.168C474.043 462.509 473.499 463 473.094 463.64C472.71 464.259 472.518 464.995 472.518 465.848C472.518 466.68 472.71 467.416 473.094 468.056C473.499 468.696 474.043 469.197 474.726 469.56C475.408 469.901 476.187 470.072 477.062 470.072ZM499.692 475.256C497.729 475.256 496.001 474.872 494.508 474.104C493.036 473.336 491.894 472.291 491.084 470.968C490.273 469.624 489.868 468.099 489.868 466.392C489.868 464.664 490.262 463.139 491.052 461.816C491.862 460.472 492.961 459.427 494.348 458.68C495.734 457.912 497.302 457.528 499.052 457.528C500.737 457.528 502.252 457.891 503.596 458.616C504.961 459.32 506.038 460.344 506.828 461.688C507.617 463.011 508.012 464.6 508.012 466.456C508.012 466.648 508.001 466.872 507.98 467.128C507.958 467.363 507.937 467.587 507.916 467.8H493.932V464.888H505.292L503.372 465.752C503.372 464.856 503.19 464.077 502.828 463.416C502.465 462.755 501.964 462.243 501.324 461.88C500.684 461.496 499.937 461.304 499.084 461.304C498.23 461.304 497.473 461.496 496.812 461.88C496.172 462.243 495.67 462.765 495.308 463.448C494.945 464.109 494.764 464.899 494.764 465.816V466.584C494.764 467.523 494.966 468.355 495.372 469.08C495.798 469.784 496.385 470.328 497.132 470.712C497.9 471.075 498.796 471.256 499.82 471.256C500.737 471.256 501.537 471.117 502.22 470.84C502.924 470.563 503.564 470.147 504.14 469.592L506.796 472.472C506.006 473.368 505.014 474.061 503.82 474.552C502.625 475.021 501.249 475.256 499.692 475.256Z" fill="white"/>
<rect x="253" y="346" width="360" height="50" fill="white" fill-opacity="0.3"/>
<rect x="253" y="501" width="360" height="50" fill="white" fill-opacity="0.3"/>
<path d="M272.704 361.24V375.544C272.704 376.128 272.88 376.544 273.232 376.792C273.592 377.032 274.056 377.152 274.624 377.152C274.992 377.152 275.34 377.112 275.668 377.032C275.996 376.952 276.316 376.852 276.628 376.732L277.312 378.604C276.936 378.796 276.472 378.964 275.92 379.108C275.376 379.252 274.752 379.324 274.048 379.324C272.776 379.324 271.784 378.968 271.072 378.256C270.368 377.536 270.016 376.552 270.016 375.304V363.22H266.188V361.24H272.704ZM291.763 366.388C291.763 367.18 291.531 367.868 291.067 368.452C290.603 369.028 289.915 369.568 289.003 370.072C290.099 370.552 290.943 371.172 291.535 371.932C292.127 372.684 292.423 373.552 292.423 374.536C292.423 375.424 292.191 376.232 291.727 376.96C291.263 377.68 290.591 378.256 289.711 378.688C288.839 379.112 287.779 379.324 286.531 379.324C285.291 379.324 284.239 379.112 283.375 378.688C282.511 378.264 281.859 377.696 281.419 376.984C280.979 376.264 280.759 375.468 280.759 374.596C280.759 373.604 281.051 372.76 281.635 372.064C282.219 371.36 282.999 370.788 283.975 370.348C283.111 369.884 282.467 369.364 282.043 368.788C281.627 368.204 281.419 367.452 281.419 366.532C281.419 365.788 281.567 365.144 281.863 364.6C282.159 364.048 282.555 363.588 283.051 363.22C283.547 362.844 284.103 362.564 284.719 362.38C285.335 362.196 285.963 362.104 286.603 362.104C287.283 362.104 287.931 362.196 288.547 362.38C289.163 362.556 289.711 362.824 290.191 363.184C290.679 363.536 291.063 363.98 291.343 364.516C291.623 365.052 291.763 365.676 291.763 366.388ZM289.675 374.548C289.675 373.876 289.515 373.34 289.195 372.94C288.883 372.54 288.431 372.204 287.839 371.932C287.247 371.66 286.539 371.38 285.715 371.092C285.315 371.3 284.947 371.56 284.611 371.872C284.275 372.176 284.007 372.544 283.807 372.976C283.607 373.408 283.507 373.92 283.507 374.512C283.507 375.36 283.763 376.036 284.275 376.54C284.787 377.036 285.551 377.284 286.567 377.284C287.591 377.284 288.363 377.02 288.883 376.492C289.411 375.964 289.675 375.316 289.675 374.548ZM284.023 366.544C284.023 367.088 284.147 367.528 284.395 367.864C284.643 368.2 285.003 368.484 285.475 368.716C285.947 368.94 286.519 369.168 287.191 369.4C287.871 368.976 288.367 368.552 288.679 368.128C288.999 367.696 289.159 367.16 289.159 366.52C289.159 365.776 288.939 365.18 288.499 364.732C288.059 364.284 287.427 364.06 286.603 364.06C285.787 364.06 285.151 364.276 284.695 364.708C284.247 365.14 284.023 365.752 284.023 366.544ZM303.189 362.44V378.52H300.525V365.2L296.877 367.444L295.725 365.56L300.813 362.44H303.189ZM306.501 376.888V379H296.481V376.888H306.501ZM321.288 367.228C321.288 368.044 321.12 368.756 320.784 369.364C320.456 369.964 320.004 370.464 319.428 370.864C318.86 371.264 318.224 371.572 317.52 371.788L322.212 379H318.972L314.808 372.184H312.996V379H310.212V362.44H314.832C316.96 362.44 318.568 362.84 319.656 363.64C320.744 364.432 321.288 365.628 321.288 367.228ZM318.372 367.228C318.372 366.268 318.092 365.576 317.532 365.152C316.98 364.72 316.132 364.504 314.988 364.504H312.996V370.144H315.048C316.112 370.144 316.932 369.92 317.508 369.472C318.084 369.016 318.372 368.268 318.372 367.228ZM331.167 372.676V379H328.359V372.7L322.839 362.44H325.899L329.823 370.288L333.771 362.44H336.687L331.167 372.676ZM343.697 377.26C344.537 377.26 345.205 377.112 345.701 376.816C346.197 376.512 346.445 376.096 346.445 375.568C346.445 375.224 346.373 374.932 346.229 374.692C346.085 374.444 345.797 374.22 345.365 374.02C344.933 373.812 344.277 373.596 343.397 373.372C342.565 373.156 341.833 372.9 341.201 372.604C340.577 372.308 340.093 371.924 339.749 371.452C339.405 370.98 339.233 370.372 339.233 369.628C339.233 368.9 339.437 368.264 339.845 367.72C340.253 367.176 340.837 366.752 341.597 366.448C342.365 366.144 343.265 365.992 344.297 365.992C345.361 365.992 346.289 366.132 347.081 366.412C347.873 366.692 348.549 367.04 349.109 367.456L347.981 369.148C347.485 368.82 346.941 368.552 346.349 368.344C345.765 368.136 345.105 368.032 344.369 368.032C343.513 368.032 342.897 368.16 342.521 368.416C342.153 368.672 341.969 369.012 341.969 369.436C341.969 369.748 342.061 370.012 342.245 370.228C342.437 370.436 342.765 370.632 343.229 370.816C343.693 370.992 344.349 371.2 345.197 371.44C346.021 371.664 346.737 371.928 347.345 372.232C347.961 372.536 348.437 372.94 348.773 373.444C349.117 373.94 349.289 374.588 349.289 375.388C349.289 376.3 349.025 377.048 348.497 377.632C347.977 378.208 347.289 378.636 346.433 378.916C345.585 379.188 344.673 379.324 343.697 379.324C342.521 379.324 341.505 379.156 340.649 378.82C339.793 378.476 339.073 378.048 338.489 377.536L339.917 375.904C340.413 376.304 340.981 376.632 341.621 376.888C342.261 377.136 342.953 377.26 343.697 377.26ZM352.256 362.44H355.34L358.544 368.404L361.784 362.44H364.748L360.164 370.048L365.252 379H362.168L358.496 371.956L354.812 379H351.836L356.852 370.18L352.256 362.44ZM385.012 376.996C385.012 376.564 385.116 376.176 385.324 375.832C385.524 375.48 385.8 375.2 386.152 374.992C386.504 374.784 386.896 374.68 387.328 374.68C387.768 374.68 388.164 374.784 388.516 374.992C388.868 375.2 389.148 375.48 389.356 375.832C389.556 376.176 389.656 376.564 389.656 376.996C389.656 377.42 389.556 377.812 389.356 378.172C389.148 378.524 388.868 378.804 388.516 379.012C388.164 379.22 387.768 379.324 387.328 379.324C386.896 379.324 386.504 379.22 386.152 379.012C385.8 378.804 385.524 378.524 385.324 378.172C385.116 377.812 385.012 377.42 385.012 376.996ZM394.612 376.996C394.612 376.564 394.712 376.176 394.912 375.832C395.12 375.48 395.4 375.2 395.752 374.992C396.104 374.784 396.496 374.68 396.928 374.68C397.368 374.68 397.764 374.784 398.116 374.992C398.468 375.2 398.744 375.48 398.944 375.832C399.152 376.176 399.256 376.564 399.256 376.996C399.256 377.42 399.152 377.812 398.944 378.172C398.744 378.524 398.468 378.804 398.116 379.012C397.764 379.22 397.368 379.324 396.928 379.324C396.496 379.324 396.104 379.22 395.752 379.012C395.4 378.804 395.12 378.524 394.912 378.172C394.712 377.812 394.612 377.42 394.612 376.996ZM375.412 376.996C375.412 376.564 375.516 376.176 375.724 375.832C375.924 375.48 376.2 375.2 376.552 374.992C376.904 374.784 377.296 374.68 377.728 374.68C378.168 374.68 378.564 374.784 378.916 374.992C379.268 375.2 379.548 375.48 379.756 375.832C379.956 376.176 380.056 376.564 380.056 376.996C380.056 377.42 379.956 377.812 379.756 378.172C379.548 378.524 379.268 378.804 378.916 379.012C378.564 379.22 378.168 379.324 377.728 379.324C377.296 379.324 376.904 379.22 376.552 379.012C376.2 378.804 375.924 378.524 375.724 378.172C375.516 377.812 375.412 377.42 375.412 376.996ZM416.61 361.24V375.544C416.61 376.128 416.786 376.544 417.138 376.792C417.498 377.032 417.962 377.152 418.53 377.152C418.898 377.152 419.246 377.112 419.574 377.032C419.902 376.952 420.222 376.852 420.534 376.732L421.218 378.604C420.842 378.796 420.378 378.964 419.826 379.108C419.282 379.252 418.658 379.324 417.954 379.324C416.682 379.324 415.69 378.968 414.978 378.256C414.274 377.536 413.922 376.552 413.922 375.304V363.22H410.094V361.24H416.61ZM431.001 361.24V375.544C431.001 376.128 431.177 376.544 431.529 376.792C431.889 377.032 432.353 377.152 432.921 377.152C433.289 377.152 433.637 377.112 433.965 377.032C434.293 376.952 434.613 376.852 434.925 376.732L435.609 378.604C435.233 378.796 434.769 378.964 434.217 379.108C433.673 379.252 433.049 379.324 432.345 379.324C431.073 379.324 430.081 378.968 429.369 378.256C428.665 377.536 428.313 376.552 428.313 375.304V363.22H424.485V361.24H431.001ZM450.924 366.328L446.46 379H443.316L438.852 366.328H441.732L444.948 376.768L448.176 366.328H450.924ZM464.45 366.388C464.45 367.18 464.218 367.868 463.754 368.452C463.29 369.028 462.602 369.568 461.69 370.072C462.786 370.552 463.63 371.172 464.222 371.932C464.814 372.684 465.11 373.552 465.11 374.536C465.11 375.424 464.878 376.232 464.414 376.96C463.95 377.68 463.278 378.256 462.398 378.688C461.526 379.112 460.466 379.324 459.218 379.324C457.978 379.324 456.926 379.112 456.062 378.688C455.198 378.264 454.546 377.696 454.106 376.984C453.666 376.264 453.446 375.468 453.446 374.596C453.446 373.604 453.738 372.76 454.322 372.064C454.906 371.36 455.686 370.788 456.662 370.348C455.798 369.884 455.154 369.364 454.73 368.788C454.314 368.204 454.106 367.452 454.106 366.532C454.106 365.788 454.254 365.144 454.55 364.6C454.846 364.048 455.242 363.588 455.738 363.22C456.234 362.844 456.79 362.564 457.406 362.38C458.022 362.196 458.65 362.104 459.29 362.104C459.97 362.104 460.618 362.196 461.234 362.38C461.85 362.556 462.398 362.824 462.878 363.184C463.366 363.536 463.75 363.98 464.03 364.516C464.31 365.052 464.45 365.676 464.45 366.388ZM462.362 374.548C462.362 373.876 462.202 373.34 461.882 372.94C461.57 372.54 461.118 372.204 460.526 371.932C459.934 371.66 459.226 371.38 458.402 371.092C458.002 371.3 457.634 371.56 457.298 371.872C456.962 372.176 456.694 372.544 456.494 372.976C456.294 373.408 456.194 373.92 456.194 374.512C456.194 375.36 456.45 376.036 456.962 376.54C457.474 377.036 458.238 377.284 459.254 377.284C460.278 377.284 461.05 377.02 461.57 376.492C462.098 375.964 462.362 375.316 462.362 374.548ZM456.71 366.544C456.71 367.088 456.834 367.528 457.082 367.864C457.33 368.2 457.69 368.484 458.162 368.716C458.634 368.94 459.206 369.168 459.878 369.4C460.558 368.976 461.054 368.552 461.366 368.128C461.686 367.696 461.846 367.16 461.846 366.52C461.846 365.776 461.626 365.18 461.186 364.732C460.746 364.284 460.114 364.06 459.29 364.06C458.474 364.06 457.838 364.276 457.382 364.708C456.934 365.14 456.71 365.752 456.71 366.544ZM469.337 379V362.44H472.121V376.672H479.537L479.237 379H469.337ZM490.699 360.94C491.475 360.94 492.167 361.008 492.775 361.144C493.391 361.272 493.959 361.448 494.479 361.672L493.687 363.532C493.263 363.356 492.819 363.228 492.355 363.148C491.899 363.068 491.435 363.028 490.963 363.028C490.131 363.028 489.515 363.188 489.115 363.508C488.715 363.82 488.515 364.316 488.515 364.996V367.24H492.751L492.463 369.22H488.515V379H485.839V369.22H482.959V367.24H485.839V364.972C485.839 364.172 486.039 363.472 486.439 362.872C486.847 362.264 487.415 361.792 488.143 361.456C488.871 361.112 489.723 360.94 490.699 360.94ZM507.19 362.44L506.842 364.456H500.482V369.064C500.954 368.816 501.41 368.648 501.85 368.56C502.298 368.464 502.746 368.416 503.194 368.416C504.074 368.416 504.858 368.624 505.546 369.04C506.234 369.456 506.774 370.056 507.166 370.84C507.566 371.624 507.766 372.572 507.766 373.684C507.766 374.788 507.518 375.768 507.022 376.624C506.534 377.472 505.846 378.136 504.958 378.616C504.07 379.088 503.026 379.324 501.826 379.324C500.746 379.324 499.786 379.132 498.946 378.748C498.114 378.356 497.382 377.824 496.75 377.152L498.358 375.64C498.822 376.152 499.33 376.54 499.882 376.804C500.442 377.06 501.054 377.188 501.718 377.188C502.726 377.188 503.518 376.884 504.094 376.276C504.678 375.66 504.97 374.792 504.97 373.672C504.97 372.856 504.85 372.212 504.61 371.74C504.378 371.26 504.058 370.916 503.65 370.708C503.242 370.5 502.782 370.396 502.27 370.396C501.854 370.396 501.462 370.44 501.094 370.528C500.734 370.616 500.334 370.756 499.894 370.948H497.914V362.44H507.19ZM514.525 379H511.741V362.44H514.525V379ZM514.645 370.156L520.405 362.44H523.465L517.669 369.964L523.921 379H520.585L514.645 370.156ZM537.327 366.328L532.203 371.992L537.867 379H534.579L529.131 372.064L534.195 366.328H537.327ZM528.939 360.94V379H526.251V361.24L528.939 360.94ZM544.254 379.288L541.722 378.508L548.07 364.552H540.486V362.44H550.794V364.372L544.254 379.288ZM565.617 364.72L566.337 366.952C565.833 367.12 565.277 367.232 564.669 367.288C564.069 367.344 563.397 367.372 562.653 367.372C563.413 367.708 563.985 368.14 564.369 368.668C564.753 369.188 564.945 369.828 564.945 370.588C564.945 371.412 564.745 372.148 564.345 372.796C563.945 373.444 563.373 373.952 562.629 374.32C561.885 374.688 560.993 374.872 559.953 374.872C559.585 374.872 559.265 374.856 558.993 374.824C558.729 374.792 558.469 374.74 558.213 374.668C558.053 374.78 557.917 374.932 557.805 375.124C557.701 375.308 557.649 375.504 557.649 375.712C557.649 375.968 557.753 376.192 557.961 376.384C558.177 376.568 558.601 376.66 559.233 376.66H561.441C562.345 376.66 563.141 376.816 563.829 377.128C564.525 377.432 565.069 377.852 565.461 378.388C565.861 378.916 566.061 379.516 566.061 380.188C566.061 381.452 565.517 382.432 564.429 383.128C563.341 383.824 561.773 384.172 559.725 384.172C558.277 384.172 557.141 384.024 556.317 383.728C555.493 383.432 554.913 382.992 554.576 382.408C554.241 381.824 554.073 381.108 554.073 380.26H556.485C556.485 380.7 556.569 381.064 556.737 381.352C556.913 381.64 557.237 381.856 557.709 382C558.181 382.144 558.861 382.216 559.749 382.216C560.637 382.216 561.341 382.14 561.861 381.988C562.389 381.844 562.769 381.632 563.001 381.352C563.241 381.08 563.361 380.752 563.361 380.368C563.361 379.856 563.137 379.46 562.689 379.18C562.241 378.9 561.641 378.76 560.889 378.76H558.717C557.517 378.76 556.637 378.516 556.077 378.028C555.525 377.54 555.249 376.972 555.249 376.324C555.249 375.892 555.369 375.476 555.609 375.076C555.857 374.676 556.209 374.328 556.665 374.032C555.905 373.632 555.349 373.148 554.997 372.58C554.653 372.004 554.481 371.308 554.481 370.492C554.481 369.596 554.705 368.812 555.153 368.14C555.601 367.468 556.221 366.944 557.013 366.568C557.813 366.192 558.733 366.004 559.773 366.004C560.789 366.004 561.637 365.952 562.317 365.848C562.997 365.736 563.589 365.58 564.093 365.38C564.605 365.18 565.113 364.96 565.617 364.72ZM559.797 367.852C558.941 367.852 558.297 368.096 557.865 368.584C557.433 369.064 557.217 369.692 557.217 370.468C557.217 371.268 557.437 371.912 557.877 372.4C558.325 372.88 558.977 373.12 559.833 373.12C560.625 373.12 561.229 372.888 561.645 372.424C562.069 371.96 562.281 371.3 562.281 370.444C562.281 369.58 562.073 368.932 561.657 368.5C561.241 368.068 560.621 367.852 559.797 367.852ZM574.835 379.324C573.427 379.324 572.219 379.004 571.211 378.364C570.203 377.716 569.431 376.752 568.895 375.472C568.359 374.192 568.091 372.6 568.091 370.696C568.091 369.28 568.283 368.036 568.667 366.964C569.051 365.892 569.579 364.996 570.251 364.276C570.923 363.556 571.691 363.016 572.555 362.656C573.427 362.288 574.347 362.104 575.315 362.104C576.443 362.104 577.383 362.272 578.135 362.608C578.895 362.944 579.599 363.412 580.247 364.012L578.687 365.632C578.183 365.168 577.667 364.828 577.139 364.612C576.619 364.388 576.035 364.276 575.387 364.276C574.803 364.276 574.247 364.392 573.719 364.624C573.199 364.848 572.735 365.212 572.327 365.716C571.919 366.212 571.595 366.872 571.355 367.696C571.123 368.512 571.007 369.516 571.007 370.708C571.007 372.244 571.155 373.488 571.451 374.44C571.747 375.384 572.187 376.072 572.771 376.504C573.363 376.936 574.095 377.152 574.967 377.152C575.471 377.152 575.951 377.092 576.407 376.972C576.863 376.852 577.295 376.68 577.703 376.456V371.896H574.895L574.595 369.772H580.403V377.8C579.619 378.24 578.783 378.604 577.895 378.892C577.015 379.18 575.995 379.324 574.835 379.324ZM586.502 369.112C587.102 369.112 587.614 369.232 588.038 369.472C588.462 369.712 588.842 369.992 589.178 370.312C589.514 370.632 589.838 370.912 590.15 371.152C590.462 371.392 590.802 371.512 591.17 371.512C591.65 371.512 592.07 371.332 592.43 370.972C592.798 370.604 593.138 370.128 593.45 369.544L595.154 370.36C594.882 370.928 594.562 371.464 594.194 371.968C593.834 372.472 593.402 372.884 592.898 373.204C592.402 373.524 591.798 373.684 591.086 373.684C590.518 373.684 590.022 373.564 589.598 373.324C589.182 373.084 588.802 372.804 588.458 372.484C588.122 372.164 587.79 371.884 587.462 371.644C587.142 371.404 586.794 371.284 586.418 371.284C585.922 371.284 585.494 371.472 585.134 371.848C584.782 372.216 584.45 372.688 584.138 373.264L582.434 372.46C582.714 371.908 583.03 371.38 583.382 370.876C583.742 370.364 584.174 369.944 584.678 369.616C585.182 369.28 585.79 369.112 586.502 369.112Z" fill="white"/>
<path d="M278.5 525.72C278.5 527.424 278.264 528.924 277.792 530.22C277.32 531.508 276.616 532.516 275.68 533.244C274.744 533.964 273.584 534.324 272.2 534.324C270.824 534.324 269.664 533.972 268.72 533.268C267.784 532.556 267.08 531.56 266.608 530.28C266.136 528.992 265.9 527.48 265.9 525.744C265.9 524.032 266.136 522.532 266.608 521.244C267.08 519.948 267.784 518.936 268.72 518.208C269.664 517.472 270.824 517.104 272.2 517.104C273.584 517.104 274.744 517.46 275.68 518.172C276.616 518.884 277.32 519.888 277.792 521.184C278.264 522.472 278.5 523.984 278.5 525.72ZM275.62 525.72C275.62 523.576 275.352 521.968 274.816 520.896C274.288 519.816 273.416 519.276 272.2 519.276C270.984 519.276 270.108 519.82 269.572 520.908C269.044 521.988 268.78 523.6 268.78 525.744C268.78 527.88 269.052 529.484 269.596 530.556C270.14 531.62 271.008 532.152 272.2 532.152C273.432 532.152 274.308 531.616 274.828 530.544C275.356 529.464 275.62 527.856 275.62 525.72ZM291.439 534H288.079L286.651 525L285.115 534H281.827L279.679 521.328H282.271L283.591 532.332L285.355 522.936H288.043L289.687 532.332L291.007 521.328H293.503L291.439 534ZM299.613 519.552V524.82H305.841V526.932H299.613V534H296.829V517.44H307.017L306.705 519.552H299.613ZM314.916 532.26C315.756 532.26 316.424 532.112 316.92 531.816C317.416 531.512 317.664 531.096 317.664 530.568C317.664 530.224 317.592 529.932 317.448 529.692C317.304 529.444 317.016 529.22 316.584 529.02C316.152 528.812 315.496 528.596 314.616 528.372C313.784 528.156 313.052 527.9 312.42 527.604C311.796 527.308 311.312 526.924 310.968 526.452C310.624 525.98 310.452 525.372 310.452 524.628C310.452 523.9 310.656 523.264 311.064 522.72C311.472 522.176 312.056 521.752 312.816 521.448C313.584 521.144 314.484 520.992 315.516 520.992C316.58 520.992 317.508 521.132 318.3 521.412C319.092 521.692 319.768 522.04 320.328 522.456L319.2 524.148C318.704 523.82 318.16 523.552 317.568 523.344C316.984 523.136 316.324 523.032 315.588 523.032C314.732 523.032 314.116 523.16 313.74 523.416C313.372 523.672 313.188 524.012 313.188 524.436C313.188 524.748 313.28 525.012 313.464 525.228C313.656 525.436 313.984 525.632 314.448 525.816C314.912 525.992 315.568 526.2 316.416 526.44C317.24 526.664 317.956 526.928 318.564 527.232C319.18 527.536 319.656 527.94 319.992 528.444C320.336 528.94 320.508 529.588 320.508 530.388C320.508 531.3 320.244 532.048 319.716 532.632C319.196 533.208 318.508 533.636 317.652 533.916C316.804 534.188 315.892 534.324 314.916 534.324C313.74 534.324 312.724 534.156 311.868 533.82C311.012 533.476 310.292 533.048 309.708 532.536L311.136 530.904C311.632 531.304 312.2 531.632 312.84 531.888C313.48 532.136 314.172 532.26 314.916 532.26ZM334.755 517.44V528.324C334.755 529.116 334.643 529.872 334.419 530.592C334.195 531.312 333.839 531.952 333.351 532.512C332.871 533.064 332.247 533.504 331.479 533.832C330.719 534.152 329.799 534.312 328.719 534.312C327.807 534.312 326.963 534.18 326.187 533.916C325.411 533.652 324.683 533.276 324.003 532.788L325.143 531.012C325.799 531.444 326.403 531.736 326.955 531.888C327.515 532.04 328.067 532.116 328.611 532.116C329.651 532.116 330.471 531.784 331.071 531.12C331.679 530.456 331.983 529.504 331.983 528.264V519.576H327.003V517.44H334.755ZM348.773 530.892C348.773 531.388 348.849 531.752 349.001 531.984C349.153 532.208 349.397 532.376 349.733 532.488L349.133 534.312C348.509 534.24 347.973 534.068 347.525 533.796C347.077 533.524 346.737 533.112 346.505 532.56C346.041 533.144 345.453 533.584 344.741 533.88C344.029 534.176 343.269 534.324 342.461 534.324C341.181 534.324 340.165 533.964 339.413 533.244C338.669 532.516 338.297 531.564 338.297 530.388C338.297 529.052 338.817 528.024 339.857 527.304C340.897 526.584 342.385 526.224 344.321 526.224H346.133V525.396C346.133 524.58 345.885 523.992 345.389 523.632C344.901 523.272 344.209 523.092 343.313 523.092C342.897 523.092 342.393 523.148 341.801 523.26C341.209 523.364 340.589 523.528 339.941 523.752L339.281 521.856C340.073 521.56 340.849 521.344 341.609 521.208C342.369 521.064 343.073 520.992 343.721 520.992C345.417 520.992 346.681 521.368 347.513 522.12C348.353 522.872 348.773 523.912 348.773 525.24V530.892ZM343.277 532.344C343.821 532.344 344.353 532.2 344.873 531.912C345.393 531.624 345.813 531.22 346.133 530.7V527.904H344.645C343.381 527.904 342.477 528.116 341.933 528.54C341.389 528.956 341.117 529.532 341.117 530.268C341.117 530.94 341.297 531.456 341.657 531.816C342.025 532.168 342.565 532.344 343.277 532.344ZM366.73 527.592V525.384H376.162V527.592H366.73ZM355.306 527.592V525.384H364.738V527.592H355.306ZM386.365 517.104L388.633 518.004L384.409 528.096H393.037V530.184H381.601V528.312L386.365 517.104ZM391.069 523.668V534H388.489L388.465 528.48L388.813 523.668H391.069ZM404.356 515.94C405.132 515.94 405.824 516.008 406.432 516.144C407.048 516.272 407.616 516.448 408.136 516.672L407.344 518.532C406.92 518.356 406.476 518.228 406.012 518.148C405.556 518.068 405.092 518.028 404.62 518.028C403.788 518.028 403.172 518.188 402.772 518.508C402.372 518.82 402.172 519.316 402.172 519.996V522.24H406.408L406.12 524.22H402.172V534H399.496V524.22H396.616V522.24H399.496V519.972C399.496 519.172 399.696 518.472 400.096 517.872C400.504 517.264 401.072 516.792 401.8 516.456C402.528 516.112 403.38 515.94 404.356 515.94ZM428.183 531.996C428.183 531.564 428.287 531.176 428.495 530.832C428.695 530.48 428.971 530.2 429.323 529.992C429.675 529.784 430.067 529.68 430.499 529.68C430.939 529.68 431.335 529.784 431.688 529.992C432.039 530.2 432.319 530.48 432.527 530.832C432.727 531.176 432.827 531.564 432.827 531.996C432.827 532.42 432.727 532.812 432.527 533.172C432.319 533.524 432.039 533.804 431.688 534.012C431.335 534.22 430.939 534.324 430.499 534.324C430.067 534.324 429.675 534.22 429.323 534.012C428.971 533.804 428.695 533.524 428.495 533.172C428.287 532.812 428.183 532.42 428.183 531.996ZM437.784 531.996C437.784 531.564 437.884 531.176 438.083 530.832C438.292 530.48 438.572 530.2 438.924 529.992C439.276 529.784 439.668 529.68 440.1 529.68C440.54 529.68 440.936 529.784 441.288 529.992C441.64 530.2 441.916 530.48 442.116 530.832C442.324 531.176 442.428 531.564 442.428 531.996C442.428 532.42 442.324 532.812 442.116 533.172C441.916 533.524 441.64 533.804 441.288 534.012C440.936 534.22 440.54 534.324 440.1 534.324C439.668 534.324 439.276 534.22 438.924 534.012C438.572 533.804 438.292 533.524 438.083 533.172C437.884 532.812 437.784 532.42 437.784 531.996ZM418.583 531.996C418.583 531.564 418.687 531.176 418.895 530.832C419.095 530.48 419.371 530.2 419.723 529.992C420.075 529.784 420.467 529.68 420.899 529.68C421.339 529.68 421.735 529.784 422.087 529.992C422.439 530.2 422.719 530.48 422.927 530.832C423.127 531.176 423.227 531.564 423.227 531.996C423.227 532.42 423.127 532.812 422.927 533.172C422.719 533.524 422.439 533.804 422.087 534.012C421.735 534.22 421.339 534.324 420.899 534.324C420.467 534.324 420.075 534.22 419.723 534.012C419.371 533.804 419.095 533.524 418.895 533.172C418.687 532.812 418.583 532.42 418.583 531.996ZM466.43 517.44L464.138 534H460.886L459.254 521.748L457.562 534H454.238L452.126 517.44H454.814L456.122 531.312L457.874 519.36H460.742L462.398 531.312L463.946 517.44H466.43ZM476.369 534V526.476H470.969V534H468.185V517.44H470.969V524.184H476.369V517.44H479.153V534H476.369ZM492.907 534H489.547L488.119 525L486.583 534H483.295L481.147 521.328H483.739L485.059 532.332L486.823 522.936H489.511L491.155 532.332L492.475 521.328H494.971L492.907 534ZM507.298 534H503.938L502.51 525L500.974 534H497.686L495.538 521.328H498.13L499.45 532.332L501.214 522.936H503.902L505.546 532.332L506.866 521.328H509.362L507.298 534ZM517.345 516.24V530.544C517.345 531.128 517.521 531.544 517.873 531.792C518.233 532.032 518.697 532.152 519.265 532.152C519.633 532.152 519.981 532.112 520.309 532.032C520.637 531.952 520.957 531.852 521.269 531.732L521.953 533.604C521.577 533.796 521.113 533.964 520.561 534.108C520.017 534.252 519.393 534.324 518.689 534.324C517.417 534.324 516.425 533.968 515.713 533.256C515.009 532.536 514.657 531.552 514.657 530.304V518.22H510.829V516.24H517.345ZM531.039 517.128C532.295 517.128 533.343 517.404 534.183 517.956C535.023 518.508 535.651 519.288 536.067 520.296C536.491 521.296 536.703 522.476 536.703 523.836C536.703 525.476 536.519 526.888 536.151 528.072C535.791 529.248 535.231 530.248 534.471 531.072C533.719 531.896 532.755 532.588 531.579 533.148C530.411 533.708 529.015 534.188 527.391 534.588L526.803 532.62C528.315 532.212 529.579 531.724 530.595 531.156C531.611 530.58 532.391 529.864 532.935 529.008C533.487 528.144 533.807 527.092 533.895 525.852L533.919 524.652C533.927 523.348 533.839 522.292 533.655 521.484C533.471 520.676 533.167 520.088 532.743 519.72C532.319 519.352 531.747 519.168 531.027 519.168C530.107 519.168 529.399 519.468 528.903 520.068C528.407 520.668 528.159 521.568 528.159 522.768C528.159 523.936 528.399 524.776 528.879 525.288C529.367 525.8 530.011 526.056 530.811 526.056C531.531 526.056 532.163 525.868 532.707 525.492C533.251 525.108 533.775 524.584 534.279 523.92L534.255 525.828C533.727 526.492 533.131 527.032 532.467 527.448C531.811 527.856 531.035 528.06 530.139 528.06C529.235 528.06 528.427 527.848 527.715 527.424C527.003 526.992 526.443 526.38 526.035 525.588C525.627 524.788 525.423 523.848 525.423 522.768C525.423 521.576 525.671 520.56 526.167 519.72C526.671 518.88 527.347 518.24 528.195 517.8C529.043 517.352 529.991 517.128 531.039 517.128ZM550.47 534H547.11L545.682 525L544.146 534H540.858L538.71 521.328H541.302L542.622 532.332L544.386 522.936H547.074L548.718 532.332L550.038 521.328H552.534L550.47 534ZM562.389 515.94L565.077 516.24V534H562.713L562.521 532.44C562.089 533.04 561.573 533.504 560.973 533.832C560.373 534.16 559.701 534.324 558.957 534.324C557.869 534.324 556.973 534.048 556.269 533.496C555.565 532.936 555.041 532.156 554.697 531.156C554.361 530.148 554.193 528.984 554.193 527.664C554.193 526.376 554.393 525.232 554.793 524.232C555.193 523.224 555.765 522.432 556.509 521.856C557.253 521.28 558.149 520.992 559.197 520.992C559.861 520.992 560.457 521.112 560.985 521.352C561.513 521.584 561.981 521.924 562.389 522.372V515.94ZM559.905 523.056C559.001 523.056 558.297 523.432 557.793 524.184C557.289 524.928 557.037 526.088 557.037 527.664C557.037 528.744 557.141 529.624 557.349 530.304C557.557 530.976 557.857 531.472 558.249 531.792C558.641 532.104 559.113 532.26 559.665 532.26C560.273 532.26 560.801 532.084 561.249 531.732C561.697 531.38 562.077 530.956 562.389 530.46V524.46C562.077 524.012 561.713 523.668 561.297 523.428C560.881 523.18 560.417 523.056 559.905 523.056ZM575.447 532.116C576.039 532.116 576.591 532.016 577.103 531.816C577.615 531.608 578.103 531.34 578.567 531.012L579.815 532.74C579.263 533.212 578.591 533.596 577.799 533.892C577.015 534.18 576.203 534.324 575.363 534.324C574.067 534.324 572.959 534.052 572.039 533.508C571.119 532.956 570.415 532.184 569.927 531.192C569.439 530.2 569.195 529.044 569.195 527.724C569.195 526.436 569.439 525.288 569.927 524.28C570.423 523.264 571.135 522.464 572.063 521.88C572.991 521.288 574.107 520.992 575.411 520.992C576.275 520.992 577.071 521.12 577.799 521.376C578.527 521.632 579.195 522.012 579.803 522.516L578.567 524.208C578.071 523.864 577.563 523.604 577.043 523.428C576.531 523.244 576.003 523.152 575.459 523.152C574.459 523.152 573.639 523.52 572.999 524.256C572.367 524.992 572.051 526.148 572.051 527.724C572.051 528.78 572.195 529.632 572.483 530.28C572.779 530.92 573.183 531.388 573.695 531.684C574.207 531.972 574.791 532.116 575.447 532.116ZM593.774 517.44V519.564H590.198V531.864H593.774V534H583.814V531.864H587.39V519.564H583.814V517.44H593.774Z" fill="white"/>
<defs>
<clipPath id="clip0_2_16">
<rect width="26" height="26" fill="white" transform="translate(1044 11)"/>
</clipPath>
<clipPath id="clip1_2_16">
<rect width="26" height="26" fill="white" transform="translate(379 11)"/>
</clipPath>
</defs>
</svg>
